<svg width="68" height="60" viewBox="0 0 68 60" fill="none" xmlns="http://www.w3.org/2000/svg">
<path d="M64.7839 8.23503C63.4817 8.23503 62.7156 8.63082 62.0134 9.44795C59.9706 11.8355 57.8895 14.1975 55.7956 16.5467C52.2717 20.5174 48.6457 24.4243 45.1985 28.4461C41.6874 32.5445 41.6491 36.7323 45.1985 40.8817C47.7903 43.9076 50.3566 46.9336 52.9867 49.9339C55.3615 52.6279 57.7873 55.2836 60.2515 57.9137C60.7749 58.4627 61.5282 59.1777 62.2432 59.2287C64.4137 59.4075 65.6904 59.2926 68.0014 59.2926V8.26056C66.5459 8.26056 66.2267 8.22226 64.7712 8.23503H64.7839Z" fill="white"/>
<path d="M34.8534 45.1723C32.6957 42.5422 31.1125 39.6312 30.6401 36.4265C30.0145 32.1621 31.636 28.3319 34.4704 24.8974C37.6112 21.0926 40.9563 17.4156 44.2376 13.6874C44.9015 12.9341 45.5782 12.1936 46.2549 11.4403C47.4039 10.1764 46.3315 8.35059 44.4419 8.35059H23.6562V59.2294H47.3912C45.4505 57.0844 43.6503 55.0799 41.85 53.0754C39.5008 50.4453 37.0622 47.8662 34.8407 45.1595L34.8534 45.1723Z" fill="white"/>
<path d="M0 46.8953V50.9426H11.6057V0H0.0510703C0.0510703 0 0 32.0594 0 46.8953Z" fill="white"/>
</svg>
