<svg width="152" height="47" viewBox="0 0 152 47" fill="none" xmlns="http://www.w3.org/2000/svg">
<g opacity="0.4" clip-path="url(#clip0_131_624)">
<path d="M50.7419 6.45028C49.7219 6.45028 49.1219 6.76028 48.5719 7.40028C46.9719 9.27028 45.3419 11.1203 43.7019 12.9603C40.9419 16.0703 38.1019 19.1303 35.4019 22.2803C32.6519 25.4903 32.6219 28.7703 35.4019 32.0203C37.4319 34.3903 39.4419 36.7603 41.5019 39.1103C43.3619 41.2203 45.2619 43.3003 47.1919 45.3603C47.6019 45.7903 48.1919 46.3503 48.7519 46.3903C50.4519 46.5303 51.4519 46.4403 53.2619 46.4403V6.47028C52.1219 6.47028 51.8719 6.44028 50.7319 6.45028H50.7419Z" fill="white"/>
<path d="M27.3012 35.38C25.6112 33.32 24.3712 31.04 24.0012 28.53C23.5112 25.19 24.7812 22.19 27.0012 19.5C29.4612 16.52 32.0813 13.64 34.6513 10.72C35.1713 10.13 35.7012 9.55004 36.2312 8.96004C37.1312 7.97004 36.2913 6.54004 34.8113 6.54004H18.5312V46.39H37.1212C35.6012 44.71 34.1912 43.14 32.7812 41.57C30.9412 39.51 29.0312 37.49 27.2913 35.37L27.3012 35.38Z" fill="white"/>
<path d="M0 36.73V39.9H9.09V0H0.04C0.04 0 0 25.11 0 36.73Z" fill="white"/>
<path d="M73.8991 35.0502V38.8102C73.8991 39.8602 74.2291 40.2502 75.5491 40.2502H85.8491V43.1502H74.1191C70.6191 43.1502 69.5391 41.7402 69.5391 38.5102V32.1502H80.6391V26.9602H69.5391V24.0602H85.0091V35.0602H73.9091L73.8991 35.0502ZM96.7991 25.8902H94.3191C93.3591 25.8902 93.1191 26.1002 93.1191 27.0302V44.6402H88.7491V25.7702C88.7491 23.8502 89.4991 22.9902 91.6491 22.9902H96.7991V25.8902Z" fill="white"/>
<path d="M113.649 38.0002C113.649 40.9602 111.519 43.4502 105.779 43.4502C100.039 43.4502 97.8789 40.9702 97.8789 38.0002V29.2002C97.8789 26.2402 99.9989 23.7502 105.779 23.7502C111.559 23.7502 113.649 26.2302 113.649 29.2002V38.0002ZM109.269 29.9502C109.269 28.0602 108.069 27.0502 105.769 27.0502C103.469 27.0502 102.239 28.0702 102.239 29.9502V37.4102C102.239 39.3002 103.409 40.3102 105.769 40.3102C108.129 40.3102 109.269 39.2902 109.269 37.4102V29.9502ZM118.429 22.9902H122.799V44.6402H118.429V22.9902Z" fill="white"/>
<path d="M125.719 40.5405H151.939V43.4405H125.719V40.5405ZM126.999 23.2705H150.569V26.1705H140.979V28.8405C140.979 32.1605 143.789 33.7205 146.039 33.7205H150.539V36.6205H145.559C142.299 36.6205 140.289 35.8705 138.799 32.9405C137.209 35.8405 135.329 36.6205 132.039 36.6205H126.979V33.7205H131.559C133.799 33.7205 136.619 32.1605 136.619 28.8405V26.1705H127.009V23.2705H126.999Z" fill="white"/>
<path d="M78.4308 7.5V11.63H76.9608V9.82H75.3508V9.99C75.3508 11.08 74.9908 11.55 73.8108 11.55H71.5908C70.4108 11.55 70.0508 11.08 70.0508 9.99V7.5H71.5208V8.61H73.8808V7.5H75.3508V8.85H76.9608V7.5H78.4308ZM72.2508 16.47C71.4408 16.47 71.2008 16.11 71.2008 15.43V12.33H72.6708V13.47H76.9708V12.33H78.4408V16.46H72.2508V16.47ZM73.8908 9.53H71.5308V10.14C71.5308 10.49 71.6408 10.62 72.0808 10.62H73.3408C73.7808 10.62 73.8908 10.49 73.8908 10.14V9.53ZM76.9708 15.49V14.44H72.6708V15.1C72.6708 15.41 72.7508 15.48 73.0708 15.48H76.9708V15.49Z" fill="white"/>
<path d="M79.8594 12.97H88.6694V13.95H84.9994V16.18H83.5294V13.95H79.8594V12.97ZM87.9294 10.42C87.9294 11.51 87.5694 11.98 86.3894 11.98H82.1394C80.9594 11.98 80.5994 11.51 80.5994 10.42V7.5H87.9294V10.42ZM85.9094 11C86.3494 11 86.4594 10.87 86.4594 10.52V8.48H82.0694V10.52C82.0694 10.87 82.1794 11 82.6194 11H85.9094Z" fill="white"/>
<path d="M98.13 7.5V11.63H96.66V9.82H95.05V9.99C95.05 11.08 94.69 11.55 93.51 11.55H91.29C90.11 11.55 89.75 11.08 89.75 9.99V7.5H91.22V8.61H93.58V7.5H95.05V8.85H96.66V7.5H98.13ZM91.95 16.47C91.14 16.47 90.9 16.11 90.9 15.43V12.33H92.37V13.47H96.67V12.33H98.14V16.46H91.95V16.47ZM93.59 9.53H91.23V10.14C91.23 10.49 91.34 10.62 91.78 10.62H93.04C93.48 10.62 93.59 10.49 93.59 10.14V9.53ZM96.67 15.49V14.44H92.37V15.1C92.37 15.41 92.45 15.48 92.77 15.48H96.67V15.49Z" fill="white"/>
<path d="M104.902 10.3804C104.902 11.3804 104.192 12.2104 102.262 12.2104C100.332 12.2104 99.6016 11.3804 99.6016 10.3804V9.23039C99.6016 8.23039 100.312 7.40039 102.262 7.40039C104.212 7.40039 104.902 8.23039 104.902 9.23039V10.3804ZM100.742 13.1004H102.212V15.1104C102.212 15.4204 102.292 15.4904 102.612 15.4904H108.182V16.4704H101.782C100.972 16.4704 100.732 16.1104 100.732 15.4304V13.1004H100.742ZM103.442 9.35039C103.442 8.72039 103.042 8.37039 102.262 8.37039C101.482 8.37039 101.072 8.71039 101.072 9.35039V10.2504C101.072 10.8804 101.462 11.2304 102.262 11.2304C103.062 11.2304 103.442 10.8904 103.442 10.2504V9.35039ZM107.982 7.50039V13.7504H106.512V7.50039H107.982Z" fill="white"/>
<path d="M150.722 11.7197H112.672V12.1197H150.722V11.7197Z" fill="white"/>
</g>
<defs>
<clipPath id="clip0_131_624">
<rect width="151.94" height="46.47" fill="white"/>
</clipPath>
</defs>
</svg>
