<svg width="167" height="40" viewBox="0 0 167 40" fill="none" xmlns="http://www.w3.org/2000/svg">
<path d="M15.9892 26.0999V15.014H19.3736V26.0999H15.9892ZM7.11521 15.094C8.35882 15.094 9.45142 15.3161 10.393 15.7602C11.3346 16.2044 12.063 16.835 12.5782 17.6523C13.0934 18.4517 13.351 19.3756 13.351 20.4237C13.351 21.4897 13.0934 22.4313 12.5782 23.2485C12.063 24.048 11.3346 24.6698 10.393 25.1139C9.45142 25.5581 8.35882 25.7801 7.11521 25.7801C5.87161 25.7801 4.77012 25.5581 3.81077 25.1139C2.86918 24.6698 2.14078 24.048 1.62557 23.2485C1.11036 22.4313 0.85276 21.4897 0.85276 20.4237C0.85276 19.3756 1.11036 18.4517 1.62557 17.6523C2.14078 16.835 2.86918 16.2044 3.81077 15.7602C4.77012 15.3161 5.87161 15.094 7.11521 15.094ZM7.11521 17.9721C6.24469 17.9721 5.54294 18.1941 5.00996 18.6383C4.47699 19.0824 4.2105 19.6776 4.2105 20.4237C4.2105 21.1699 4.47699 21.7651 5.00996 22.2092C5.54294 22.6533 6.24469 22.8754 7.11521 22.8754C7.98574 22.8754 8.68749 22.6533 9.22046 22.2092C9.75344 21.7651 10.0199 21.1699 10.0199 20.4237C10.0199 19.6776 9.75344 19.0824 9.22046 18.6383C8.68749 18.1941 7.98574 17.9721 7.11521 17.9721ZM2.45168 35.4003V26.9527H19.3736V35.4003H2.45168ZM15.9892 29.884H5.80943V32.469H15.9892V29.884ZM36.1329 35.4803V15.014H39.5173V35.4803H36.1329ZM27.6053 15.3338C29.4707 15.3338 30.9364 16.1422 32.0023 17.7589C33.086 19.3578 33.6279 21.7739 33.6279 25.0073C33.6279 28.2407 33.086 30.6657 32.0023 32.2824C30.9364 33.8814 29.4707 34.6808 27.6053 34.6808C25.7221 34.6808 24.2387 33.8814 23.1549 32.2824C22.089 30.6657 21.556 28.2407 21.556 25.0073C21.556 21.7739 22.089 19.3578 23.1549 17.7589C24.2387 16.1422 25.7221 15.3338 27.6053 15.3338ZM27.6053 18.5583C26.7703 18.5583 26.1041 19.0735 25.6066 20.104C25.127 21.1166 24.8871 22.7511 24.8871 25.0073C24.8871 27.2813 25.127 28.9247 25.6066 29.9373C26.1041 30.95 26.7703 31.4563 27.6053 31.4563C28.4225 31.4563 29.0798 30.95 29.5773 29.9373C30.0747 28.9069 30.3235 27.2636 30.3235 25.0073C30.3235 22.7688 30.0747 21.1344 29.5773 20.104C29.0798 19.0735 28.4225 18.5583 27.6053 18.5583ZM59.6609 35.4803H56.2765V15.014H59.6609V35.4803ZM49.9341 18.8248C49.8808 21.0278 49.712 22.8665 49.4278 24.3411L55.2905 32.2291L52.6256 34.3344L48.2819 28.2851C47.5357 30.2038 46.5675 31.6962 45.3772 32.7621C44.2046 33.8103 42.89 34.3699 41.4332 34.441V30.87C42.4281 30.7279 43.2986 30.1416 44.0447 29.1112C44.8087 28.063 45.4038 26.6595 45.8302 24.9007C46.2744 23.1241 46.5142 21.0988 46.5497 18.8248H41.9395V15.5737H54.3578V18.8248H49.9341ZM81.8766 15.014H83.7953V30.2571H81.8766V21.7562H77.8793V19.9707H81.8766V15.014ZM72.4163 22.4224C71.7767 23.7904 70.9062 24.8918 69.8047 25.7268C68.7032 26.5618 67.433 27.0682 65.9939 27.2458V25.3804C67.6817 25.1139 69.023 24.27 70.0179 22.8488C71.0305 21.4275 71.5902 19.5976 71.6968 17.3591H66.2338V15.6003H78.6787V17.3591H73.6155C73.5622 18.6383 73.3934 19.7486 73.1092 20.6902L79.1851 25.5936L78.0925 27.0859L72.4163 22.4224ZM84.2483 35.1605H67.4063V28.7914H69.3517V33.3217H84.2483V35.1605ZM103.246 21.3031V26.1532H101.327V15.014H103.246V19.3578H106.071V21.3031H103.246ZM99.7817 24.1279C99.1599 24.4299 98.2716 24.6609 97.1169 24.8208C95.9621 24.9807 94.6563 25.0606 93.1995 25.0606H86.484V15.5737H98.3427V17.3058H88.4027V23.3285H93.3061C94.7274 23.3285 95.9976 23.2485 97.1169 23.0886C98.2539 22.9287 99.1422 22.6978 99.7817 22.3957V24.1279ZM103.246 27.3524V35.1605H87.1236V27.3524H103.246ZM101.327 33.4283V29.0846H89.0689V33.4283H101.327ZM118.779 24.5543V22.7422H122.191V19.2778H118.779V17.4924H122.191V15.014H124.083V30.2305H122.191V24.5543H118.779ZM106.761 26.8194V15.4138H108.626V19.1179H115.875V15.4138H117.74V26.8194H106.761ZM115.875 20.8501H108.626V25.0873H115.875V20.8501ZM124.536 35.1605H107.694V28.7381H109.639V33.3217H124.536V35.1605ZM126.718 19.6509V17.8122H134.713V14.7476H136.658V17.8122H144.706V19.6509H126.718ZM145.425 34.441H126.025V32.6289H134.766V29.1912C132.598 29.1023 130.866 28.7381 129.569 28.0986C128.29 27.4412 127.651 26.4819 127.651 25.2205C127.651 23.8525 128.388 22.8399 129.863 22.1826C131.337 21.5252 133.291 21.1966 135.725 21.1966C138.141 21.1966 140.087 21.5252 141.561 22.1826C143.036 22.8399 143.773 23.8525 143.773 25.2205C143.773 26.4819 143.125 27.4412 141.828 28.0986C140.549 28.7381 138.834 29.1023 136.685 29.1912V32.6289H145.425V34.441ZM129.623 25.2205C129.623 26.0022 130.173 26.5796 131.275 26.9527C132.394 27.3258 133.878 27.5123 135.725 27.5123C137.555 27.5123 139.021 27.3258 140.122 26.9527C141.242 26.5796 141.801 26.0022 141.801 25.2205C141.801 24.421 141.242 23.8348 140.122 23.4617C139.021 23.0886 137.555 22.9021 135.725 22.9021C133.878 22.9021 132.394 23.0886 131.275 23.4617C130.173 23.8348 129.623 24.421 129.623 25.2205ZM163.677 25.4071V35.4803H161.758V15.014H163.677V23.4883H166.502V25.4071H163.677ZM154.43 15.6003C154.394 18.9403 154.137 21.8006 153.657 24.1812L159.92 33.0019L158.347 34.1478L153.017 26.5529C152.36 28.8447 151.463 30.6569 150.326 31.9893C149.189 33.304 147.874 34.0412 146.382 34.2011V32.2025C147.679 31.9715 148.78 31.0921 149.686 29.5643C150.61 28.0364 151.303 26.0555 151.765 23.6216C152.227 21.1877 152.467 18.4961 152.485 15.547L154.43 15.6003Z" fill="#124137"/>
<path d="M8.78959 3.63404V0.312136H9.4945V8.35696H8.78959V4.27727H7.31808V8.32171H6.61317V0.32976H7.31808V3.63404H8.78959ZM4.72753 1.45762H2.0841V0.814387H5.43244V3.48425C5.43244 5.27296 5.13285 5.97788 3.98737 6.85021C3.55561 7.16742 2.73615 7.5375 2.07529 7.74016V7.05287C2.59517 6.86783 3.07979 6.64754 3.49393 6.36558C4.34864 5.78402 4.72753 5.24653 4.72753 3.48425V1.45762ZM31.3465 6.28628H30.6416V0.312136H31.3465V6.28628ZM26.7293 4.79715C25.3459 4.79715 24.3502 3.88076 24.3502 2.59429C24.3502 1.29902 25.3459 0.382628 26.7293 0.382628C28.1215 0.382628 29.1172 1.29902 29.1172 2.59429C29.1172 3.88076 28.1215 4.79715 26.7293 4.79715ZM26.7293 4.16272C27.7073 4.16272 28.4123 3.51949 28.4123 2.59429C28.4123 1.66028 27.7073 1.01705 26.7293 1.01705C25.7512 1.01705 25.0551 1.66028 25.0551 2.59429C25.0551 3.51949 25.7512 4.16272 26.7293 4.16272ZM31.5667 8.33052H25.1168V5.50206H25.8217V7.68729H31.5667V8.33052ZM49.4489 1.15803H51.7222V1.80127H46.4266V1.15803H48.7087V0.135908H49.4489V1.15803ZM52.6739 8.35696V0.312136H53.3788V8.35696H52.6739ZM49.4313 5.83689V6.96475H52.154V7.60799H46.2592V6.96475H48.7264V5.83689C47.6426 5.72234 46.8495 5.06149 46.8495 4.12748C46.8495 3.10535 47.81 2.40925 49.0612 2.40925C50.3124 2.40925 51.2817 3.10535 51.2817 4.12748C51.2817 5.05268 50.4975 5.71353 49.4313 5.83689ZM47.5633 4.12748C47.5633 4.79715 48.1448 5.23772 49.0612 5.23772C49.9776 5.23772 50.5679 4.79715 50.5679 4.12748C50.5679 3.45781 49.9776 3.02605 49.0612 3.02605C48.1448 3.02605 47.5633 3.45781 47.5633 4.12748ZM75.0586 2.982H73.6312V4.72666H72.9263V0.32976H73.6312V2.33876H75.0586V0.312136H75.7636V5.0703H75.0586V2.982ZM70.371 2.74409C70.2124 3.07011 69.8599 3.50187 69.5163 3.81027C69.0581 4.20678 68.6439 4.47994 68.2298 4.67379V3.93363C68.6351 3.71334 69.0228 3.43138 69.3224 3.11417C69.948 2.4445 70.0185 2.0568 70.0185 1.26377V0.514799H70.7234V1.26377C70.7234 2.03917 70.8292 2.38282 71.2609 2.88507C71.6222 3.29039 72.054 3.58998 72.4945 3.82789V4.55043C72.0099 4.31252 71.6134 4.05699 71.2169 3.71334C70.882 3.42257 70.5384 3.05249 70.371 2.74409ZM72.3447 5.22009C74.6886 5.22009 75.9398 5.78402 75.9398 6.88545C75.9398 7.98688 74.6886 8.55081 72.3447 8.55081C70.0009 8.55081 68.7497 7.98688 68.7497 6.88545C68.7497 5.78402 70.0009 5.22009 72.3447 5.22009ZM72.3447 7.90758C74.2392 7.90758 75.2349 7.56393 75.2349 6.88545C75.2349 6.20697 74.2392 5.86333 72.3447 5.86333C70.4503 5.86333 69.4546 6.20697 69.4546 6.88545C69.4546 7.56393 70.4503 7.90758 72.3447 7.90758ZM97.1838 3.66047H98.3997V4.30371H97.1838V8.35696H96.4789V0.312136H97.1838V3.66047ZM90.4254 0.743896H95.4039V1.38713H90.4254V0.743896ZM93.6592 1.73959H94.3641V6.91189L95.8709 6.87664V7.50225L90.4078 7.66086V7L91.4035 6.97357V1.73959H92.1084V6.96475L93.6592 6.92951V1.73959ZM119.216 0.312136V2.77052H120.388V3.41375H119.216V6.23341H118.511V0.312136H119.216ZM115.048 3.01724C114.819 3.41375 114.449 3.8367 114.026 4.17154C113.471 4.61211 112.96 4.89407 112.458 5.10555V4.36539C112.969 4.12748 113.445 3.82789 113.815 3.46662C114.59 2.72646 114.696 2.2947 114.696 1.41356V0.523611H115.401V1.41356C115.401 2.27708 115.533 2.65597 116.088 3.2199C116.555 3.66929 117.093 3.99531 117.621 4.25965V4.98219C117.04 4.71784 116.546 4.44469 116.07 4.07461C115.665 3.73978 115.286 3.39613 115.048 3.01724ZM112.96 5.53731H113.665V7.68729H119.463V8.33052H112.96V5.53731ZM141.328 0.312136H142.033V6.31271H141.328V0.312136ZM140.209 6.27746H139.504V2.64716H138.059V2.00393H139.504V0.32976H140.209V6.27746ZM136.64 3.08773C136.481 3.44019 136.12 3.916 135.785 4.25084C135.327 4.6826 134.913 4.97337 134.499 5.18485V4.44469C134.904 4.20678 135.292 3.89838 135.583 3.53711C136.208 2.79696 136.288 2.37401 136.288 1.48405V0.594102H136.992V1.48405C136.992 2.35638 137.098 2.72646 137.521 3.28158C137.882 3.73978 138.314 4.07461 138.755 4.33895V5.06149C138.27 4.79715 137.874 4.52399 137.477 4.1451C137.142 3.82789 136.799 3.42257 136.64 3.08773ZM135.891 5.57255V7.68729H142.253V8.33052H135.186V5.57255H135.891ZM163.18 3.82789V0.312136H163.885V8.35696H163.18V4.47112H161.541V3.82789H163.18ZM161.047 4.39182H157.725V7L161.55 6.91189V7.5375L157.02 7.65204V0.743896H161.232V1.38713H157.725V3.7574H161.047V4.39182Z" fill="#231F20"/>
</svg>
