<svg width="152" height="47" viewBox="0 0 152 47" fill="none" xmlns="http://www.w3.org/2000/svg">
<g clip-path="url(#clip0_131_435)">
<path d="M50.7419 6.45004C49.7219 6.45004 49.1219 6.76004 48.5719 7.40004C46.9719 9.27004 45.3419 11.12 43.7019 12.96C40.9419 16.07 38.1019 19.13 35.4019 22.28C32.6519 25.49 32.6219 28.77 35.4019 32.02C37.4319 34.39 39.4419 36.76 41.5019 39.11C43.3619 41.22 45.2619 43.3 47.1919 45.36C47.6019 45.79 48.1919 46.35 48.7519 46.39C50.4519 46.53 51.4519 46.44 53.2619 46.44V6.47004C52.1219 6.47004 51.8719 6.44004 50.7319 6.45004H50.7419Z" fill="#124137"/>
<path d="M27.3012 35.38C25.6112 33.32 24.3712 31.04 24.0012 28.53C23.5112 25.19 24.7812 22.19 27.0012 19.5C29.4612 16.52 32.0813 13.64 34.6513 10.72C35.1713 10.13 35.7012 9.55004 36.2312 8.96004C37.1312 7.97004 36.2913 6.54004 34.8113 6.54004H18.5312V46.39H37.1212C35.6012 44.71 34.1912 43.14 32.7812 41.57C30.9412 39.51 29.0312 37.49 27.2913 35.37L27.3012 35.38Z" fill="#196351"/>
<path d="M0 36.73V39.9H9.09V0H0.04C0.04 0 0 25.11 0 36.73Z" fill="#D1A765"/>
<path d="M73.8991 35.05V38.81C73.8991 39.86 74.2291 40.25 75.5491 40.25H85.8491V43.15H74.1191C70.6191 43.15 69.5391 41.74 69.5391 38.51V32.15H80.6391V26.96H69.5391V24.06H85.0091V35.06H73.9091L73.8991 35.05ZM96.7991 25.89H94.3191C93.3591 25.89 93.1191 26.1 93.1191 27.03V44.64H88.7491V25.77C88.7491 23.85 89.4991 22.99 91.6491 22.99H96.7991V25.89Z" fill="#124137"/>
<path d="M113.649 38C113.649 40.96 111.519 43.45 105.779 43.45C100.039 43.45 97.8789 40.97 97.8789 38V29.2C97.8789 26.24 99.9989 23.75 105.779 23.75C111.559 23.75 113.649 26.23 113.649 29.2V38ZM109.269 29.95C109.269 28.06 108.069 27.05 105.769 27.05C103.469 27.05 102.239 28.07 102.239 29.95V37.41C102.239 39.3 103.409 40.31 105.769 40.31C108.129 40.31 109.269 39.29 109.269 37.41V29.95ZM118.429 22.99H122.799V44.64H118.429V22.99Z" fill="#124137"/>
<path d="M125.719 40.54H151.939V43.44H125.719V40.54ZM126.999 23.27H150.569V26.17H140.979V28.84C140.979 32.16 143.789 33.72 146.039 33.72H150.539V36.62H145.559C142.299 36.62 140.289 35.87 138.799 32.94C137.209 35.84 135.329 36.62 132.039 36.62H126.979V33.72H131.559C133.799 33.72 136.619 32.16 136.619 28.84V26.17H127.009V23.27H126.999Z" fill="#124137"/>
<path d="M78.4308 7.5V11.63H76.9608V9.82H75.3508V9.99C75.3508 11.08 74.9908 11.55 73.8108 11.55H71.5908C70.4108 11.55 70.0508 11.08 70.0508 9.99V7.5H71.5208V8.61H73.8808V7.5H75.3508V8.85H76.9608V7.5H78.4308ZM72.2508 16.47C71.4408 16.47 71.2008 16.11 71.2008 15.43V12.33H72.6708V13.47H76.9708V12.33H78.4408V16.46H72.2508V16.47ZM73.8908 9.53H71.5308V10.14C71.5308 10.49 71.6408 10.62 72.0808 10.62H73.3408C73.7808 10.62 73.8908 10.49 73.8908 10.14V9.53ZM76.9708 15.49V14.44H72.6708V15.1C72.6708 15.41 72.7508 15.48 73.0708 15.48H76.9708V15.49Z" fill="#231F20"/>
<path d="M79.8594 12.97H88.6694V13.95H84.9994V16.18H83.5294V13.95H79.8594V12.97ZM87.9294 10.42C87.9294 11.51 87.5694 11.98 86.3894 11.98H82.1394C80.9594 11.98 80.5994 11.51 80.5994 10.42V7.5H87.9294V10.42ZM85.9094 11C86.3494 11 86.4594 10.87 86.4594 10.52V8.48H82.0694V10.52C82.0694 10.87 82.1794 11 82.6194 11H85.9094Z" fill="#231F20"/>
<path d="M98.13 7.5V11.63H96.66V9.82H95.05V9.99C95.05 11.08 94.69 11.55 93.51 11.55H91.29C90.11 11.55 89.75 11.08 89.75 9.99V7.5H91.22V8.61H93.58V7.5H95.05V8.85H96.66V7.5H98.13ZM91.95 16.47C91.14 16.47 90.9 16.11 90.9 15.43V12.33H92.37V13.47H96.67V12.33H98.14V16.46H91.95V16.47ZM93.59 9.53H91.23V10.14C91.23 10.49 91.34 10.62 91.78 10.62H93.04C93.48 10.62 93.59 10.49 93.59 10.14V9.53ZM96.67 15.49V14.44H92.37V15.1C92.37 15.41 92.45 15.48 92.77 15.48H96.67V15.49Z" fill="#231F20"/>
<path d="M104.902 10.3799C104.902 11.3799 104.192 12.2099 102.262 12.2099C100.332 12.2099 99.6016 11.3799 99.6016 10.3799V9.2299C99.6016 8.2299 100.312 7.3999 102.262 7.3999C104.212 7.3999 104.902 8.2299 104.902 9.2299V10.3799ZM100.742 13.0999H102.212V15.1099C102.212 15.4199 102.292 15.4899 102.612 15.4899H108.182V16.4699H101.782C100.972 16.4699 100.732 16.1099 100.732 15.4299V13.0999H100.742ZM103.442 9.3499C103.442 8.7199 103.042 8.3699 102.262 8.3699C101.482 8.3699 101.072 8.7099 101.072 9.3499V10.2499C101.072 10.8799 101.462 11.2299 102.262 11.2299C103.062 11.2299 103.442 10.8899 103.442 10.2499V9.3499ZM107.982 7.4999V13.7499H106.512V7.4999H107.982Z" fill="#231F20"/>
<path d="M150.722 11.72H112.672V12.12H150.722V11.72Z" fill="#231F20"/>
</g>
<defs>
<clipPath id="clip0_131_435">
<rect width="151.94" height="46.47" fill="white"/>
</clipPath>
</defs>
</svg>
