<svg width="40" height="28" viewBox="0 0 40 28" fill="none" xmlns="http://www.w3.org/2000/svg">
<path d="M4.7 26.8C4.1 26.4 3.66667 25.9 3.4 25.3C3.13333 24.7 3.06667 24.1 3.2 23.5C3.4 22.8333 3.83333 22.3333 4.5 22C5.16667 21.6667 5.96667 21.2 6.9 20.6C7.83333 19.9333 8.46667 19.1667 8.8 18.3C9 17.8333 9 17.4667 8.8 17.2C8.66667 16.8667 8.4 16.7 8 16.7C6.93333 16.6333 5.9 16.4333 4.9 16.1C3.96667 15.7 3.13333 15.1667 2.4 14.5C1.66667 13.8333 1.06667 13.0333 0.6 12.1C0.2 11.1 0 9.96667 0 8.7C0.0666667 6.23333 1 4.16667 2.8 2.5C4.6 0.833335 6.76667 0 9.3 0C12.3 0 14.6 0.966666 16.2 2.9C17.8667 4.83333 18.7333 7.2 18.8 10C18.8667 14 17.8667 17.4667 15.8 20.4C13.7333 23.3333 10.8 25.4667 7 26.8C6.06667 27.1333 5.3 27.1333 4.7 26.8ZM25.7 26.8C25.1 26.4 24.6667 25.9 24.4 25.3C24.1333 24.7 24.0667 24.1 24.2 23.5C24.4 22.8333 24.8333 22.3333 25.5 22C26.1667 21.6667 26.9667 21.2 27.9 20.6C28.8333 19.9333 29.4667 19.1667 29.8 18.3C30 17.8333 30 17.4667 29.8 17.2C29.6667 16.8667 29.4 16.7 29 16.7C27.9333 16.6333 26.9 16.4333 25.9 16.1C24.9667 15.7 24.1333 15.1667 23.4 14.5C22.6667 13.8333 22.0667 13.0333 21.6 12.1C21.2 11.1 21 9.96667 21 8.7C21.0667 6.23333 22 4.16667 23.8 2.5C25.6 0.833335 27.7667 0 30.3 0C33.3 0 35.6 0.966666 37.2 2.9C38.8667 4.83333 39.7333 7.2 39.8 10C39.8667 14 38.8667 17.4667 36.8 20.4C34.7333 23.3333 31.8 25.4667 28 26.8C27.0667 27.1333 26.3 27.1333 25.7 26.8Z" fill="#446158"/>
</svg>
