<svg width="40" height="27" viewBox="0 0 40 27" fill="none" xmlns="http://www.w3.org/2000/svg">
<path d="M9.50313 26.9778C6.50313 26.9778 4.16979 26.0111 2.50313 24.0778C0.903125 22.1444 0.0697917 19.7778 0.003125 16.9778C-0.0635417 12.9778 0.936458 9.51111 3.00313 6.57777C5.06979 3.64444 8.00313 1.51111 11.8031 0.177779C12.6698 -0.0888887 13.4031 -0.055556 14.0031 0.277777C14.6698 0.61111 15.1365 1.07778 15.4031 1.67778C15.6698 2.27778 15.7031 2.91111 15.5031 3.57778C15.3698 4.17778 14.9698 4.64444 14.3031 4.97778C13.6365 5.31111 12.8365 5.81111 11.9031 6.47778C10.9698 7.07778 10.3365 7.81111 10.0031 8.67778C9.80313 9.14444 9.76979 9.54444 9.90313 9.87778C10.1031 10.1444 10.4031 10.2778 10.8031 10.2778C11.8698 10.3444 12.8698 10.5778 13.8031 10.9778C14.8031 11.3111 15.6698 11.8111 16.4031 12.4778C17.1365 13.1444 17.7031 13.9778 18.1031 14.9778C18.5698 15.9111 18.8031 17.0111 18.8031 18.2778C18.8031 19.5444 18.5365 20.7111 18.0031 21.7778C17.5365 22.8444 16.8698 23.7778 16.0031 24.5778C15.2031 25.3111 14.2365 25.9111 13.1031 26.3778C11.9698 26.7778 10.7698 26.9778 9.50313 26.9778ZM30.5031 26.9778C27.5031 26.9778 25.1698 26.0111 23.5031 24.0778C21.9031 22.1444 21.0698 19.7778 21.0031 16.9778C20.9365 12.9778 21.9365 9.51111 24.0031 6.57777C26.0698 3.64444 29.0031 1.51111 32.8031 0.177779C33.6698 -0.0888887 34.4031 -0.055556 35.0031 0.277777C35.6698 0.61111 36.1365 1.07778 36.4031 1.67778C36.6698 2.27778 36.7031 2.91111 36.5031 3.57778C36.3698 4.17778 35.9698 4.64444 35.3031 4.97778C34.6365 5.31111 33.8365 5.81111 32.9031 6.47778C31.9698 7.07778 31.3365 7.81111 31.0031 8.67778C30.8031 9.14444 30.7698 9.54444 30.9031 9.87778C31.1031 10.1444 31.4031 10.2778 31.8031 10.2778C32.8698 10.3444 33.8698 10.5778 34.8031 10.9778C35.8031 11.3111 36.6698 11.8111 37.4031 12.4778C38.1365 13.1444 38.7031 13.9778 39.1031 14.9778C39.5698 15.9111 39.8031 17.0111 39.8031 18.2778C39.8031 19.5444 39.5365 20.7111 39.0031 21.7778C38.5365 22.8444 37.8698 23.7778 37.0031 24.5778C36.2031 25.3111 35.2365 25.9111 34.1031 26.3778C32.9698 26.7778 31.7698 26.9778 30.5031 26.9778Z" fill="#446158"/>
</svg>
