<svg width="294" height="98" viewBox="0 0 294 98" fill="none" xmlns="http://www.w3.org/2000/svg">
<rect width="294" height="80" rx="10" fill="#276B5C"/>
<path d="M231.696 48.8086H230.141V44.2734H231.696V48.8086ZM234.887 48.8086H233.331V44.2734H234.887V48.8086Z" fill="white"/>
<path d="M224.038 53.2119C224.05 52.4678 224.123 51.8672 224.258 51.4102C224.398 50.9531 224.598 50.5869 224.855 50.3115C225.113 50.0303 225.459 49.7578 225.893 49.4941C226.297 49.248 226.613 48.9551 226.842 48.6152C227.076 48.2754 227.193 47.8916 227.193 47.4639C227.193 47.1123 227.111 46.8018 226.947 46.5322C226.783 46.2568 226.555 46.0459 226.262 45.8994C225.969 45.7529 225.644 45.6797 225.286 45.6797C224.964 45.6797 224.659 45.7471 224.372 45.8818C224.091 46.0166 223.856 46.2275 223.669 46.5146C223.481 46.8018 223.373 47.1533 223.344 47.5693H221.445C221.475 46.8428 221.662 46.2188 222.008 45.6973C222.354 45.1699 222.811 44.7715 223.379 44.502C223.953 44.2324 224.592 44.0977 225.295 44.0977C226.051 44.0977 226.719 44.2383 227.299 44.5195C227.879 44.8008 228.327 45.1992 228.644 45.7148C228.96 46.2246 229.118 46.8135 229.118 47.4814C229.118 48.1611 228.963 48.7471 228.652 49.2393C228.342 49.7256 227.896 50.1475 227.316 50.5049C226.953 50.7217 226.666 50.9473 226.455 51.1816C226.25 51.416 226.095 51.6943 225.989 52.0166C225.884 52.333 225.828 52.7314 225.822 53.2119V53.3438H224.038V53.2119ZM224.987 57.123C224.765 57.123 224.557 57.0645 224.363 56.9473C224.17 56.8301 224.018 56.6777 223.906 56.4902C223.801 56.2969 223.748 56.0889 223.748 55.8662C223.748 55.6494 223.801 55.4443 223.906 55.251C224.018 55.0576 224.17 54.9082 224.363 54.8027C224.557 54.6914 224.765 54.6357 224.987 54.6357C225.204 54.6357 225.409 54.6914 225.603 54.8027C225.796 54.9082 225.948 55.0576 226.06 55.251C226.171 55.4443 226.227 55.6494 226.227 55.8662C226.227 56.0889 226.171 56.2969 226.06 56.4902C225.948 56.6777 225.796 56.8301 225.603 56.9473C225.409 57.0645 225.204 57.123 224.987 57.123Z" fill="white"/>
<path d="M211.707 55.4443H210.063V50.8301H211.707V55.4443ZM217.578 55.4443H215.899V50.8301H217.578V55.4443ZM221.023 56.5254H206.609V55.1455H221.023V56.5254ZM213.79 43.6494C214.915 43.6494 215.917 43.8223 216.796 44.168C217.675 44.5078 218.36 44.9912 218.853 45.6182C219.351 46.2393 219.6 46.9541 219.6 47.7627C219.6 48.5771 219.351 49.2949 218.853 49.916C218.36 50.5312 217.675 51.0117 216.796 51.3574C215.917 51.6973 214.915 51.8672 213.79 51.8672C212.671 51.8672 211.669 51.6973 210.784 51.3574C209.905 51.0117 209.217 50.5312 208.719 49.916C208.221 49.2949 207.972 48.5771 207.972 47.7627C207.972 46.9541 208.221 46.2393 208.719 45.6182C209.217 44.9912 209.905 44.5078 210.784 44.168C211.669 43.8223 212.671 43.6494 213.79 43.6494ZM213.79 45.0029C212.97 44.9971 212.243 45.1084 211.61 45.3369C210.983 45.5596 210.491 45.8818 210.134 46.3037C209.782 46.7197 209.606 47.2061 209.606 47.7627C209.606 48.3193 209.782 48.8086 210.134 49.2305C210.491 49.6523 210.986 49.9805 211.619 50.2148C212.252 50.4492 212.976 50.5664 213.79 50.5664C214.599 50.5664 215.319 50.4492 215.952 50.2148C216.585 49.9805 217.08 49.6523 217.438 49.2305C217.795 48.8086 217.974 48.3193 217.974 47.7627C217.974 47.2061 217.795 46.7197 217.438 46.3037C217.086 45.8818 216.594 45.5596 215.961 45.3369C215.328 45.1084 214.604 44.9971 213.79 45.0029Z" fill="white"/>
<path d="M204.298 58.4854H202.619V42.7354H204.298V58.4854ZM206.583 50.5137H203.762V49.125H206.583V50.5137ZM196.528 44.4229C196.528 45.8584 196.42 47.1768 196.203 48.3779C195.992 49.5732 195.626 50.7334 195.104 51.8584C194.589 52.9775 193.871 54.0264 192.951 55.0049L191.633 54.0557C192.465 53.1826 193.127 52.2568 193.619 51.2783C194.111 50.2939 194.46 49.2656 194.665 48.1934C194.87 47.1211 194.973 45.9287 194.973 44.6162V44.4229H196.528ZM195.588 45.8027H192.195V44.4229H195.588V45.8027ZM200.87 44.4229C200.87 45.9463 200.779 47.3613 200.598 48.668C200.422 49.9688 200.082 51.252 199.578 52.5176C199.08 53.7773 198.377 54.9492 197.469 56.0332L196.133 55.1016C196.965 54.123 197.615 53.0742 198.084 51.9551C198.553 50.8301 198.875 49.6729 199.051 48.4834C199.227 47.2881 199.314 45.9873 199.314 44.5811V44.4229H200.87ZM199.982 45.8027H197.038V44.4229H199.982V45.8027Z" fill="white"/>
<path d="M189.311 51.3486H187.649V42.6914H189.311V51.3486ZM191.622 47.7363H188.607V46.3828H191.622V47.7363ZM189.311 55.752H180.803V57.5273H179.159V54.5654H187.649V53.3262H179.133V52.1045H189.311V55.752ZM189.855 58.3359H179.159V57.0791H189.855V58.3359ZM186.331 45.3896H176.953V44.0889H186.331V45.3896ZM181.646 45.9873C182.408 45.9873 183.079 46.0928 183.659 46.3037C184.239 46.5088 184.685 46.8076 184.995 47.2002C185.312 47.5869 185.47 48.0439 185.47 48.5713C185.47 49.0928 185.312 49.5498 184.995 49.9424C184.685 50.3291 184.239 50.6279 183.659 50.8389C183.085 51.0498 182.414 51.1553 181.646 51.1553C180.885 51.1553 180.211 51.0498 179.625 50.8389C179.045 50.6279 178.597 50.3291 178.28 49.9424C177.97 49.5498 177.814 49.0928 177.814 48.5713C177.814 48.0439 177.97 47.5869 178.28 47.2002C178.597 46.8076 179.045 46.5088 179.625 46.3037C180.211 46.0928 180.885 45.9873 181.646 45.9873ZM181.646 47.1914C181.207 47.1914 180.817 47.25 180.478 47.3672C180.138 47.4785 179.877 47.6396 179.695 47.8506C179.514 48.0557 179.423 48.2959 179.423 48.5713C179.423 48.8467 179.514 49.0898 179.695 49.3008C179.877 49.5059 180.135 49.6641 180.469 49.7754C180.803 49.8809 181.195 49.9336 181.646 49.9336C182.104 49.9336 182.499 49.8809 182.833 49.7754C183.167 49.6641 183.428 49.5059 183.615 49.3008C183.803 49.0898 183.896 48.8467 183.896 48.5713C183.896 48.2842 183.803 48.041 183.615 47.8418C183.428 47.6367 183.164 47.4785 182.824 47.3672C182.49 47.25 182.098 47.1914 181.646 47.1914ZM182.481 45.0029H180.82V42.5947H182.481V45.0029Z" fill="white"/>
<path d="M174.837 48.3516H164.018V46.9893H174.837V48.3516ZM165.679 47.6045H164.018V43.0342H165.679V47.6045ZM176.48 51.3926H162.102V50.0303H176.48V51.3926ZM169.273 52.6758C170.41 52.6758 171.386 52.7871 172.2 53.0098C173.015 53.2266 173.636 53.5518 174.063 53.9854C174.497 54.4189 174.714 54.9404 174.714 55.5498C174.714 56.1533 174.497 56.6689 174.063 57.0967C173.636 57.5303 173.015 57.8584 172.2 58.0811C171.386 58.3096 170.41 58.4238 169.273 58.4238C168.137 58.4238 167.158 58.3096 166.338 58.0811C165.518 57.8584 164.891 57.5303 164.457 57.0967C164.023 56.6689 163.807 56.1533 163.807 55.5498C163.807 54.9404 164.023 54.4189 164.457 53.9854C164.891 53.5518 165.518 53.2266 166.338 53.0098C167.158 52.7871 168.137 52.6758 169.273 52.6758ZM169.273 53.9766C168.471 53.9766 167.785 54.0381 167.217 54.1611C166.648 54.2783 166.221 54.4541 165.934 54.6885C165.646 54.9229 165.503 55.21 165.503 55.5498C165.503 55.8838 165.649 56.1709 165.942 56.4111C166.235 56.6455 166.663 56.8271 167.226 56.9561C167.788 57.0791 168.471 57.1406 169.273 57.1406C170.064 57.1406 170.741 57.0791 171.304 56.9561C171.872 56.8271 172.303 56.6455 172.596 56.4111C172.889 56.1709 173.035 55.8838 173.035 55.5498C173.035 55.21 172.889 54.9229 172.596 54.6885C172.303 54.4541 171.875 54.2783 171.312 54.1611C170.756 54.0381 170.076 53.9766 169.273 53.9766Z" fill="white"/>
<path d="M159.533 58.4766H157.872V42.7354H159.533V58.4766ZM161.977 50.417H159.103V49.0283H161.977V50.417ZM155.411 44.4053C155.411 45.9814 155.165 47.4551 154.673 48.8262C154.187 50.1914 153.407 51.4512 152.335 52.6055C151.269 53.7539 149.895 54.7441 148.213 55.5762L147.281 54.2754C148.729 53.5488 149.933 52.7109 150.894 51.7617C151.854 50.8066 152.575 49.7432 153.056 48.5713C153.536 47.3936 153.776 46.1016 153.776 44.6953V44.4053H155.411ZM154.62 45.7939H148.055V44.4053H154.62V45.7939Z" fill="white"/>
<path d="M141.516 51.3574H130.547V50.0127H141.516V51.3574ZM143.168 56.5693H128.754V55.1895H143.168V56.5693ZM136.743 55.6992H135.108V50.6104H136.743V55.6992ZM141.366 45.3105H132.226V50.6279H130.547V43.9746H141.366V45.3105Z" fill="white"/>
<path d="M123.23 50.1357H120.33V48.7734H123.23V50.1357ZM127.467 58.4854H125.858V42.7354H127.467V58.4854ZM124.259 57.7119H122.677V43.0342H124.259V57.7119ZM117.491 43.9922C118.177 43.9922 118.777 44.2178 119.293 44.6689C119.809 45.1143 120.207 45.7559 120.488 46.5938C120.775 47.4316 120.919 48.416 120.919 49.5469C120.919 50.666 120.775 51.6445 120.488 52.4824C120.207 53.3203 119.809 53.9678 119.293 54.4248C118.777 54.876 118.177 55.1045 117.491 55.1104C116.812 55.1045 116.214 54.876 115.698 54.4248C115.183 53.9678 114.784 53.3203 114.503 52.4824C114.228 51.6445 114.09 50.666 114.09 49.5469C114.09 48.416 114.228 47.4316 114.503 46.5938C114.784 45.7559 115.183 45.1143 115.698 44.6689C116.214 44.2178 116.812 43.9922 117.491 43.9922ZM117.491 45.5742C117.104 45.5684 116.773 45.7236 116.498 46.04C116.223 46.3564 116.012 46.8135 115.865 47.4111C115.719 48.0029 115.646 48.7148 115.646 49.5469C115.646 50.3672 115.719 51.0762 115.865 51.6738C116.012 52.2715 116.226 52.7285 116.507 53.0449C116.788 53.3555 117.116 53.5107 117.491 53.5107C117.872 53.5107 118.203 53.3555 118.484 53.0449C118.766 52.7285 118.982 52.2715 119.135 51.6738C119.287 51.0762 119.363 50.3672 119.363 49.5469C119.363 48.7148 119.287 48.0029 119.135 47.4111C118.982 46.8135 118.766 46.3564 118.484 46.04C118.203 45.7236 117.872 45.5684 117.491 45.5742Z" fill="white"/>
<path d="M113.477 53.0801H99.0625V51.6914H113.477V53.0801ZM107.052 58.4941H105.408V52.5352H107.052V58.4941ZM106.234 43.333C107.342 43.333 108.32 43.4766 109.17 43.7637C110.02 44.0449 110.676 44.4521 111.139 44.9854C111.607 45.5127 111.842 46.1338 111.842 46.8486C111.842 47.5342 111.607 48.1377 111.139 48.6592C110.676 49.1807 110.02 49.585 109.17 49.8721C108.32 50.1533 107.342 50.2939 106.234 50.2939C105.127 50.2939 104.148 50.1533 103.299 49.8721C102.455 49.585 101.799 49.1807 101.33 48.6592C100.861 48.1377 100.627 47.5342 100.627 46.8486C100.627 46.1338 100.861 45.5127 101.33 44.9854C101.799 44.4521 102.455 44.0449 103.299 43.7637C104.148 43.4766 105.127 43.333 106.234 43.333ZM106.234 44.6865C105.455 44.6865 104.772 44.7715 104.187 44.9414C103.601 45.1113 103.146 45.3604 102.824 45.6885C102.508 46.0166 102.35 46.4033 102.35 46.8486C102.35 47.2764 102.508 47.6514 102.824 47.9736C103.146 48.29 103.601 48.5361 104.187 48.7119C104.772 48.8818 105.455 48.9668 106.234 48.9668C107.014 48.9668 107.699 48.8818 108.291 48.7119C108.883 48.5361 109.337 48.29 109.653 47.9736C109.976 47.6514 110.137 47.2764 110.137 46.8486C110.137 46.4033 109.976 46.0166 109.653 45.6885C109.337 45.3604 108.883 45.1113 108.291 44.9414C107.699 44.7715 107.014 44.6865 106.234 44.6865Z" fill="white"/>
<path d="M95.9834 46.8838H91.8613V45.5566H95.9834V46.8838ZM95.8691 50.1621H91.7383V48.7998H95.8691V50.1621ZM97.3721 52.0869H95.7021V42.7529H97.3721V52.0869ZM92.4502 43.8867C92.4502 45.2402 92.1602 46.4619 91.5801 47.5518C91 48.6416 90.1621 49.5732 89.0664 50.3467C87.9766 51.1143 86.6582 51.7236 85.1113 52.1748L84.4258 50.8564C85.7734 50.4756 86.9102 49.9805 87.8359 49.3711C88.7676 48.7559 89.4707 48.0498 89.9453 47.2529C90.4258 46.4561 90.666 45.5918 90.666 44.6602V43.8867H92.4502ZM91.8086 45.2578H85.2432V43.8867H91.8086V45.2578ZM92.1865 52.2539C93.2471 52.2539 94.1758 52.3799 94.9727 52.6318C95.7754 52.8779 96.3906 53.2295 96.8184 53.6865C97.252 54.1436 97.4688 54.6914 97.4688 55.3301C97.4688 55.9629 97.252 56.5137 96.8184 56.9824C96.3906 57.4453 95.7754 57.7998 94.9727 58.0459C94.1758 58.292 93.2471 58.415 92.1865 58.415C91.1201 58.415 90.1885 58.292 89.3916 58.0459C88.5947 57.7998 87.9766 57.4453 87.5371 56.9824C87.1035 56.5137 86.8867 55.9629 86.8867 55.3301C86.8867 54.6914 87.1035 54.1436 87.5371 53.6865C87.9766 53.2295 88.5947 52.8779 89.3916 52.6318C90.1885 52.3799 91.1201 52.2539 92.1865 52.2539ZM92.1865 53.5723C91.4482 53.5605 90.8008 53.625 90.2441 53.7656C89.6934 53.9062 89.2686 54.1113 88.9697 54.3809C88.6768 54.6445 88.5303 54.9609 88.5303 55.3301C88.5303 55.6934 88.6768 56.0068 88.9697 56.2705C89.2686 56.5283 89.6904 56.7275 90.2354 56.8682C90.7861 57.0088 91.4365 57.0791 92.1865 57.0791C92.9248 57.0791 93.5635 57.0088 94.1025 56.8682C94.6475 56.7275 95.0664 56.5283 95.3594 56.2705C95.6582 56.0068 95.8076 55.6934 95.8076 55.3301C95.8076 54.9609 95.6582 54.6445 95.3594 54.3809C95.0664 54.1113 94.6475 53.9062 94.1025 53.7656C93.5635 53.625 92.9248 53.5605 92.1865 53.5723Z" fill="white"/>
<path d="M79.2471 58.4854H77.665V42.7354H79.2471V58.4854ZM74.958 49.6787H72.0137V48.334H74.958V49.6787ZM76.0479 57.7031H74.4746V43.0869H76.0479V57.7031ZM70.1592 47.1387C70.1592 48.3105 70.0156 49.4326 69.7285 50.5049C69.4473 51.5771 69.0371 52.541 68.498 53.3965C67.959 54.252 67.3027 54.9199 66.5293 55.4004L65.4922 54.1523C66.2188 53.7188 66.8369 53.1328 67.3467 52.3945C67.8564 51.6562 68.2373 50.8359 68.4893 49.9336C68.7412 49.0254 68.8672 48.0938 68.8672 47.1387V45.2227H70.1592V47.1387ZM70.4756 47.1387C70.4756 48.0586 70.5986 48.9492 70.8447 49.8105C71.0908 50.666 71.4629 51.4424 71.9609 52.1396C72.459 52.8311 73.0654 53.3848 73.7803 53.8008L72.7783 55.0312C72.0107 54.5625 71.3604 53.9268 70.8271 53.124C70.2998 52.3154 69.9014 51.3984 69.6318 50.373C69.3682 49.3477 69.2363 48.2695 69.2363 47.1387V45.2227H70.4756V47.1387ZM73.1914 45.873H65.9844V44.5107H73.1914V45.873Z" fill="white"/>
<path d="M61.6338 48.8086H60.0781V44.2734H61.6338V48.8086ZM64.8242 48.8086H63.2686V44.2734H64.8242V48.8086Z" fill="white"/>
<path d="M257.626 24.8086H256.07V20.2734H257.626V24.8086ZM260.816 24.8086H259.261V20.2734H260.816V24.8086Z" fill="white"/>
<path d="M249.968 29.2119C249.979 28.4678 250.053 27.8672 250.188 27.4102C250.328 26.9531 250.527 26.5869 250.785 26.3115C251.043 26.0303 251.389 25.7578 251.822 25.4941C252.227 25.248 252.543 24.9551 252.771 24.6152C253.006 24.2754 253.123 23.8916 253.123 23.4639C253.123 23.1123 253.041 22.8018 252.877 22.5322C252.713 22.2568 252.484 22.0459 252.191 21.8994C251.898 21.7529 251.573 21.6797 251.216 21.6797C250.894 21.6797 250.589 21.7471 250.302 21.8818C250.021 22.0166 249.786 22.2275 249.599 22.5146C249.411 22.8018 249.303 23.1533 249.273 23.5693H247.375C247.404 22.8428 247.592 22.2188 247.938 21.6973C248.283 21.1699 248.74 20.7715 249.309 20.502C249.883 20.2324 250.521 20.0977 251.225 20.0977C251.98 20.0977 252.648 20.2383 253.229 20.5195C253.809 20.8008 254.257 21.1992 254.573 21.7148C254.89 22.2246 255.048 22.8135 255.048 23.4814C255.048 24.1611 254.893 24.7471 254.582 25.2393C254.271 25.7256 253.826 26.1475 253.246 26.5049C252.883 26.7217 252.596 26.9473 252.385 27.1816C252.18 27.416 252.024 27.6943 251.919 28.0166C251.813 28.333 251.758 28.7314 251.752 29.2119V29.3438H249.968V29.2119ZM250.917 33.123C250.694 33.123 250.486 33.0645 250.293 32.9473C250.1 32.8301 249.947 32.6777 249.836 32.4902C249.73 32.2969 249.678 32.0889 249.678 31.8662C249.678 31.6494 249.73 31.4443 249.836 31.251C249.947 31.0576 250.1 30.9082 250.293 30.8027C250.486 30.6914 250.694 30.6357 250.917 30.6357C251.134 30.6357 251.339 30.6914 251.532 30.8027C251.726 30.9082 251.878 31.0576 251.989 31.251C252.101 31.4443 252.156 31.6494 252.156 31.8662C252.156 32.0889 252.101 32.2969 251.989 32.4902C251.878 32.6777 251.726 32.8301 251.532 32.9473C251.339 33.0645 251.134 33.123 250.917 33.123Z" fill="white"/>
<path d="M237.637 31.4443H235.993V26.8301H237.637V31.4443ZM243.508 31.4443H241.829V26.8301H243.508V31.4443ZM246.953 32.5254H232.539V31.1455H246.953V32.5254ZM239.72 19.6494C240.845 19.6494 241.847 19.8223 242.726 20.168C243.604 20.5078 244.29 20.9912 244.782 21.6182C245.28 22.2393 245.529 22.9541 245.529 23.7627C245.529 24.5771 245.28 25.2949 244.782 25.916C244.29 26.5312 243.604 27.0117 242.726 27.3574C241.847 27.6973 240.845 27.8672 239.72 27.8672C238.601 27.8672 237.599 27.6973 236.714 27.3574C235.835 27.0117 235.146 26.5312 234.648 25.916C234.15 25.2949 233.901 24.5771 233.901 23.7627C233.901 22.9541 234.15 22.2393 234.648 21.6182C235.146 20.9912 235.835 20.5078 236.714 20.168C237.599 19.8223 238.601 19.6494 239.72 19.6494ZM239.72 21.0029C238.899 20.9971 238.173 21.1084 237.54 21.3369C236.913 21.5596 236.421 21.8818 236.063 22.3037C235.712 22.7197 235.536 23.2061 235.536 23.7627C235.536 24.3193 235.712 24.8086 236.063 25.2305C236.421 25.6523 236.916 25.9805 237.549 26.2148C238.182 26.4492 238.905 26.5664 239.72 26.5664C240.528 26.5664 241.249 26.4492 241.882 26.2148C242.515 25.9805 243.01 25.6523 243.367 25.2305C243.725 24.8086 243.903 24.3193 243.903 23.7627C243.903 23.2061 243.725 22.7197 243.367 22.3037C243.016 21.8818 242.523 21.5596 241.891 21.3369C241.258 21.1084 240.534 20.9971 239.72 21.0029Z" fill="white"/>
<path d="M230.228 34.4854H228.549V18.7354H230.228V34.4854ZM232.513 26.5137H229.691V25.125H232.513V26.5137ZM222.458 20.4229C222.458 21.8584 222.35 23.1768 222.133 24.3779C221.922 25.5732 221.556 26.7334 221.034 27.8584C220.519 28.9775 219.801 30.0264 218.881 31.0049L217.562 30.0557C218.395 29.1826 219.057 28.2568 219.549 27.2783C220.041 26.2939 220.39 25.2656 220.595 24.1934C220.8 23.1211 220.902 21.9287 220.902 20.6162V20.4229H222.458ZM221.518 21.8027H218.125V20.4229H221.518V21.8027ZM226.8 20.4229C226.8 21.9463 226.709 23.3613 226.527 24.668C226.352 25.9688 226.012 27.252 225.508 28.5176C225.01 29.7773 224.307 30.9492 223.398 32.0332L222.062 31.1016C222.895 30.123 223.545 29.0742 224.014 27.9551C224.482 26.8301 224.805 25.6729 224.98 24.4834C225.156 23.2881 225.244 21.9873 225.244 20.5811V20.4229H226.8ZM225.912 21.8027H222.968V20.4229H225.912V21.8027Z" fill="white"/>
<path d="M210.048 18.999C211.231 18.999 212.242 19.1045 213.08 19.3154C213.918 19.5205 214.557 19.8252 214.996 20.2295C215.441 20.6338 215.664 21.123 215.664 21.6973C215.664 22.2832 215.441 22.7812 214.996 23.1914C214.557 23.5957 213.918 23.9033 213.08 24.1143C212.242 24.3252 211.231 24.4365 210.048 24.4482C208.864 24.4365 207.851 24.3252 207.007 24.1143C206.169 23.9033 205.524 23.5957 205.073 23.1914C204.628 22.7812 204.405 22.2832 204.405 21.6973C204.405 21.123 204.628 20.6338 205.073 20.2295C205.524 19.8252 206.169 19.5205 207.007 19.3154C207.851 19.1045 208.864 18.999 210.048 18.999ZM210.048 20.2383C209.216 20.2383 208.507 20.2939 207.921 20.4053C207.341 20.5166 206.901 20.6836 206.603 20.9062C206.304 21.1289 206.154 21.3926 206.154 21.6973C206.154 22.0312 206.301 22.3096 206.594 22.5322C206.887 22.749 207.323 22.9131 207.903 23.0244C208.483 23.1357 209.198 23.1914 210.048 23.1914C210.897 23.1914 211.612 23.1357 212.192 23.0244C212.772 22.9131 213.209 22.7461 213.502 22.5234C213.801 22.2949 213.95 22.0195 213.95 21.6973C213.95 21.3926 213.798 21.1318 213.493 20.915C213.194 20.6982 212.752 20.5312 212.166 20.4141C211.586 20.2969 210.88 20.2383 210.048 20.2383ZM217.229 26.7422H202.867V25.4062H217.229V26.7422ZM215.409 31.6465H206.251V33.3955H204.607V30.4424H213.774V29.2031H204.581V27.9551H215.409V31.6465ZM215.866 34.3359H204.607V33.0439H215.866V34.3359Z" fill="white"/>
<path d="M193.181 29.1592C193.181 29.8857 193.04 30.5889 192.759 31.2686C192.483 31.9424 192.076 32.54 191.537 33.0615C191.004 33.583 190.356 33.9844 189.595 34.2656L188.76 33.0439C189.416 32.8037 189.976 32.4785 190.438 32.0684C190.907 31.6523 191.265 31.1924 191.511 30.6885C191.757 30.1846 191.88 29.6748 191.88 29.1592V28.4033H193.181V29.1592ZM193.497 29.1592C193.497 29.6865 193.603 30.2109 193.813 30.7324C194.024 31.248 194.341 31.7168 194.763 32.1387C195.185 32.5605 195.706 32.8975 196.327 33.1494L195.642 34.3975C194.886 34.1104 194.256 33.6943 193.752 33.1494C193.254 32.6045 192.885 31.9893 192.645 31.3037C192.41 30.6182 192.293 29.9033 192.293 29.1592V28.4033H193.497V29.1592ZM198.964 29.1592C198.964 29.8389 198.841 30.5244 198.595 31.2158C198.354 31.9014 197.985 32.5254 197.487 33.0879C196.989 33.6562 196.374 34.0928 195.642 34.3975L194.938 33.1494C195.542 32.874 196.055 32.5137 196.477 32.0684C196.904 31.6172 197.221 31.1367 197.426 30.627C197.637 30.1172 197.742 29.6279 197.742 29.1592V28.4033H198.964V29.1592ZM199.386 29.1592C199.386 29.71 199.506 30.2402 199.746 30.75C199.986 31.2539 200.341 31.708 200.81 32.1123C201.284 32.5166 201.85 32.8271 202.506 33.0439L201.688 34.2656C200.915 33.9961 200.259 33.6064 199.72 33.0967C199.181 32.5869 198.773 31.9951 198.498 31.3213C198.223 30.6416 198.085 29.9209 198.085 29.1592V28.4033H199.386V29.1592ZM201.091 27.7178H199.43V18.7529H201.091V27.7178ZM192.548 19.6318C193.345 19.6318 194.06 19.79 194.692 20.1064C195.331 20.417 195.832 20.8564 196.195 21.4248C196.559 21.9873 196.74 22.6318 196.74 23.3584C196.74 24.0674 196.559 24.7031 196.195 25.2656C195.832 25.8281 195.331 26.2646 194.692 26.5752C194.06 26.8857 193.345 27.041 192.548 27.041C191.751 27.041 191.033 26.8857 190.395 26.5752C189.762 26.2646 189.264 25.8281 188.9 25.2656C188.537 24.7031 188.355 24.0674 188.355 23.3584C188.355 22.6318 188.537 21.9873 188.9 21.4248C189.264 20.8564 189.762 20.417 190.395 20.1064C191.033 19.79 191.751 19.6318 192.548 19.6318ZM192.548 21.0469C192.056 21.0352 191.613 21.126 191.221 21.3193C190.834 21.5127 190.532 21.7881 190.315 22.1455C190.099 22.4971 189.99 22.9014 189.99 23.3584C189.99 23.7979 190.099 24.1934 190.315 24.5449C190.532 24.8906 190.834 25.1602 191.221 25.3535C191.613 25.5469 192.056 25.6494 192.548 25.6611C193.04 25.6494 193.477 25.5469 193.857 25.3535C194.244 25.1602 194.546 24.8906 194.763 24.5449C194.985 24.1934 195.097 23.7979 195.097 23.3584C195.097 22.9014 194.988 22.4971 194.771 22.1455C194.555 21.7881 194.253 21.5127 193.866 21.3193C193.479 21.126 193.04 21.0352 192.548 21.0469Z" fill="white"/>
<path d="M177.307 20.124C177.307 21.0967 177.02 21.9932 176.445 22.8135C175.871 23.6338 175.092 24.3164 174.107 24.8613C173.129 25.4004 172.051 25.7637 170.873 25.9512L170.205 24.6064C171.225 24.4717 172.165 24.1816 173.026 23.7363C173.888 23.291 174.57 22.752 175.074 22.1191C175.584 21.4863 175.839 20.8213 175.839 20.124V19.2715H177.307V20.124ZM177.57 20.124C177.57 20.8154 177.825 21.4805 178.335 22.1191C178.851 22.752 179.542 23.291 180.409 23.7363C181.282 24.1816 182.223 24.4717 183.23 24.6064L182.571 25.9512C181.388 25.7637 180.307 25.3975 179.328 24.8525C178.35 24.3076 177.57 23.625 176.99 22.8047C176.41 21.9844 176.12 21.0908 176.12 20.124V19.2715H177.57V20.124ZM177.491 34.4854H175.848V28.5527H177.491V34.4854ZM183.881 28.8955H169.52V27.5068H183.881V28.8955Z" fill="white"/>
<path d="M158.188 18.999C159.372 18.999 160.383 19.1045 161.221 19.3154C162.059 19.5205 162.697 19.8252 163.137 20.2295C163.582 20.6338 163.805 21.123 163.805 21.6973C163.805 22.2832 163.582 22.7812 163.137 23.1914C162.697 23.5957 162.059 23.9033 161.221 24.1143C160.383 24.3252 159.372 24.4365 158.188 24.4482C157.005 24.4365 155.991 24.3252 155.147 24.1143C154.31 23.9033 153.665 23.5957 153.214 23.1914C152.769 22.7812 152.546 22.2832 152.546 21.6973C152.546 21.123 152.769 20.6338 153.214 20.2295C153.665 19.8252 154.31 19.5205 155.147 19.3154C155.991 19.1045 157.005 18.999 158.188 18.999ZM158.188 20.2383C157.356 20.2383 156.647 20.2939 156.062 20.4053C155.481 20.5166 155.042 20.6836 154.743 20.9062C154.444 21.1289 154.295 21.3926 154.295 21.6973C154.295 22.0312 154.441 22.3096 154.734 22.5322C155.027 22.749 155.464 22.9131 156.044 23.0244C156.624 23.1357 157.339 23.1914 158.188 23.1914C159.038 23.1914 159.753 23.1357 160.333 23.0244C160.913 22.9131 161.35 22.7461 161.643 22.5234C161.941 22.2949 162.091 22.0195 162.091 21.6973C162.091 21.3926 161.938 21.1318 161.634 20.915C161.335 20.6982 160.893 20.5312 160.307 20.4141C159.727 20.2969 159.021 20.2383 158.188 20.2383ZM165.369 26.7422H151.008V25.4062H165.369V26.7422ZM163.55 31.6465H154.392V33.3955H152.748V30.4424H161.915V29.2031H152.722V27.9551H163.55V31.6465ZM164.007 34.3359H152.748V33.0439H164.007V34.3359Z" fill="white"/>
<path d="M148.546 27.9375H146.885V18.7354H148.546V27.9375ZM150.84 23.8594H148.08V22.4707H150.84V23.8594ZM138.421 21.9258H142.543V19.6494H144.213V27.0234H136.777V19.6494H138.421V21.9258ZM142.543 25.7051V23.2354H138.421V25.7051H142.543ZM148.66 30.0996H140.179V33.8965H138.518V28.7725H148.66V30.0996ZM148.959 34.2832H138.518V32.9385H148.959V34.2832Z" fill="white"/>
<path d="M133.707 27.6299H132.046V18.7354H133.707V27.6299ZM136.001 23.833H133.241V22.4619H136.001V23.833ZM129.365 19.7285C129.365 21.0645 129.072 22.2686 128.486 23.3408C127.906 24.4131 127.06 25.3301 125.946 26.0918C124.839 26.8477 123.5 27.4395 121.93 27.8672L121.262 26.5312C122.609 26.1738 123.755 25.6992 124.698 25.1074C125.647 24.5098 126.368 23.8213 126.86 23.042C127.353 22.2568 127.599 21.4072 127.599 20.4932V19.7285H129.365ZM128.548 21.082H121.991V19.7285H128.548V21.082ZM133.707 34.2832H123.626V28.3154H133.707V34.2832ZM125.278 32.9473H132.055V29.6865H125.278V32.9473Z" fill="white"/>
<path d="M118.872 28.3857H117.211V18.7354H118.872V28.3857ZM121.166 24.0879H118.406V22.7256H121.166V24.0879ZM113.81 28.7549C114.894 28.7549 115.828 28.8662 116.613 29.0889C117.398 29.3115 117.999 29.6396 118.415 30.0732C118.837 30.501 119.048 31.0137 119.048 31.6113C119.048 32.2148 118.837 32.7275 118.415 33.1494C117.999 33.5771 117.398 33.9023 116.613 34.125C115.828 34.3535 114.894 34.4678 113.81 34.4678C112.72 34.4678 111.776 34.3535 110.979 34.125C110.183 33.9023 109.573 33.5771 109.151 33.1494C108.735 32.7275 108.527 32.2148 108.527 31.6113C108.527 31.0137 108.735 30.501 109.151 30.0732C109.573 29.6396 110.183 29.3115 110.979 29.0889C111.776 28.8662 112.72 28.7549 113.81 28.7549ZM113.81 30.0557C113.048 30.0557 112.395 30.1172 111.85 30.2402C111.311 30.3574 110.897 30.5332 110.61 30.7676C110.329 30.9961 110.188 31.2773 110.188 31.6113C110.188 31.9453 110.329 32.2295 110.61 32.4639C110.897 32.6982 111.311 32.877 111.85 33C112.395 33.123 113.048 33.1846 113.81 33.1846C114.554 33.1846 115.192 33.123 115.726 33C116.265 32.877 116.675 32.6982 116.956 32.4639C117.243 32.2295 117.387 31.9453 117.387 31.6113C117.387 31.2891 117.243 31.0107 116.956 30.7764C116.675 30.5361 116.265 30.3574 115.726 30.2402C115.192 30.1172 114.554 30.0557 113.81 30.0557ZM108.413 26.0566C110.054 26.0684 111.387 26.0449 112.412 25.9863C113.438 25.9219 114.457 25.8076 115.471 25.6436L115.655 26.9707C114.624 27.1523 113.587 27.2725 112.544 27.3311C111.501 27.3896 110.124 27.416 108.413 27.4102H107.191V26.0566H108.413ZM114.504 21.1611H108.853V26.6719H107.191V19.8164H114.504V21.1611ZM114.196 24.2461H108.308V22.9277H114.196V24.2461Z" fill="white"/>
<path d="M100.746 27.3574H89.7773V26.0127H100.746V27.3574ZM102.398 32.5693H87.9844V31.1895H102.398V32.5693ZM95.9736 31.6992H94.3389V26.6104H95.9736V31.6992ZM100.597 21.3105H91.4561V26.6279H89.7773V19.9746H100.597V21.3105Z" fill="white"/>
<path d="M86.2881 34.5293H84.6182V18.7354H86.2881V34.5293ZM85.084 25.7666H81.375V24.3955H85.084V25.7666ZM78.4219 23.165C78.4219 24.3252 78.2344 25.4561 77.8594 26.5576C77.4844 27.6533 76.96 28.6289 76.2861 29.4844C75.6182 30.334 74.8477 30.9844 73.9746 31.4355L72.9727 30.1348C73.7637 29.748 74.4697 29.1885 75.0908 28.4561C75.7178 27.7236 76.2041 26.8975 76.5498 25.9775C76.9014 25.0518 77.0771 24.1143 77.0771 23.165V21.0469H78.4219V23.165ZM78.7734 23.165C78.7734 24.0557 78.9463 24.9434 79.292 25.8281C79.6436 26.7129 80.1299 27.5068 80.751 28.21C81.3721 28.9131 82.0781 29.4375 82.8691 29.7832L81.8848 31.1191C81.0117 30.6914 80.2383 30.0674 79.5645 29.2471C78.8965 28.4209 78.375 27.4805 78 26.4258C77.6309 25.3711 77.4463 24.2842 77.4463 23.165V21.0469H78.7734V23.165ZM82.2715 21.6885H73.5967V20.335H82.2715V21.6885Z" fill="white"/>
<path d="M67.0146 26.707H65.3535V18.7354H67.0146V26.707ZM69.3086 23.4199H66.2939V22.0312H69.3086V23.4199ZM62.6201 25.96H55.2461V19.5879H62.6201V25.96ZM56.8896 24.6328H60.9941V20.9238H56.8896V24.6328ZM67.0146 31.4092H58.5068V33.6504H56.8633V30.1699H65.3535V28.7285H56.8369V27.4189H67.0146V31.4092ZM67.5596 34.292H56.8633V32.9648H67.5596V34.292Z" fill="white"/>
<path d="M51.7383 24.123H48.3369V22.752H51.7383V24.123ZM52.9336 28.1133H51.2637V18.7354H52.9336V28.1133ZM47.6514 28.5615C48.7588 28.5615 49.7109 28.6787 50.5078 28.9131C51.3105 29.1475 51.9229 29.4873 52.3447 29.9326C52.7725 30.3721 52.9863 30.9023 52.9863 31.5234C52.9863 32.1445 52.7725 32.6748 52.3447 33.1143C51.9229 33.5596 51.3105 33.8994 50.5078 34.1338C49.7109 34.3682 48.7588 34.4883 47.6514 34.4941C46.5557 34.4883 45.6094 34.3682 44.8125 34.1338C44.0156 33.8994 43.4033 33.5596 42.9756 33.1143C42.5479 32.6748 42.334 32.1445 42.334 31.5234C42.334 30.9023 42.5479 30.3721 42.9756 29.9326C43.4033 29.4873 44.0156 29.1475 44.8125 28.9131C45.6094 28.6787 46.5557 28.5615 47.6514 28.5615ZM47.6514 29.8447C46.8955 29.8447 46.2393 29.9121 45.6826 30.0469C45.1318 30.1758 44.71 30.3662 44.417 30.6182C44.1299 30.8701 43.9863 31.1719 43.9863 31.5234C43.9863 31.8633 44.1299 32.1592 44.417 32.4111C44.71 32.6631 45.1318 32.8564 45.6826 32.9912C46.2393 33.1201 46.8955 33.1846 47.6514 33.1846C48.4248 33.1846 49.084 33.1201 49.6289 32.9912C50.1797 32.8564 50.5986 32.6631 50.8857 32.4111C51.1787 32.1592 51.3252 31.8633 51.3252 31.5234C51.3252 31.1719 51.1787 30.8701 50.8857 30.6182C50.5986 30.3662 50.1797 30.1758 49.6289 30.0469C49.084 29.9121 48.4248 29.8447 47.6514 29.8447ZM45.1201 21.5479C45.1201 22.5146 44.9385 23.4287 44.5752 24.29C44.2178 25.1514 43.7051 25.9072 43.0371 26.5576C42.3691 27.2021 41.5869 27.6914 40.6904 28.0254L39.8203 26.6895C40.6172 26.4082 41.3115 26.001 41.9033 25.4678C42.501 24.9346 42.958 24.3281 43.2744 23.6484C43.5908 22.9629 43.749 22.2627 43.749 21.5479V20.3262H45.1201V21.5479ZM45.4365 21.5303C45.4365 22.1924 45.5889 22.8369 45.8936 23.4639C46.1982 24.085 46.6377 24.6416 47.2119 25.1338C47.7861 25.6201 48.46 25.998 49.2334 26.2676L48.3809 27.5947C47.4961 27.2842 46.7314 26.8242 46.0869 26.2148C45.4424 25.6055 44.9473 24.8965 44.6016 24.0879C44.2559 23.2734 44.083 22.4209 44.083 21.5303V20.3262H45.4365V21.5303ZM48.8291 21.1963H40.3213V19.8164H48.8291V21.1963Z" fill="white"/>
<path d="M35.7041 24.8086H34.1484V20.2734H35.7041V24.8086ZM38.8945 24.8086H37.3389V20.2734H38.8945V24.8086Z" fill="white"/>
<path d="M271 78.7856L242.5 95.2401L242.5 62.3312L271 78.7856Z" fill="#276B5C"/>
</svg>
