<svg width="539" height="132" viewBox="0 0 539 132" fill="none" xmlns="http://www.w3.org/2000/svg">
<rect width="538.503" height="106.792" rx="11.3608" fill="#124137"/>
<path d="M487.113 83.6933H483.704V59.3696H487.113V83.6933ZM490.707 71.1654H486.367V68.3829H490.707V71.1654ZM471.003 74.9996C473.205 75.0085 475.153 74.9553 476.848 74.8399C478.543 74.7245 480.247 74.5204 481.96 74.2275L482.333 77.0765C480.594 77.3694 478.863 77.5647 477.141 77.6623C475.419 77.76 473.373 77.8044 471.003 77.7955H468.953V74.9996H471.003ZM480.323 64.3888H472.348V76.3843H468.953V61.6329H480.323V64.3888Z" fill="white"/>
<path d="M465.889 83.6268H462.521V59.3696H465.889V83.6268ZM450.179 76.757H446.824V61.6995H450.179V76.757ZM448.968 74.76C450.867 74.76 452.789 74.6757 454.732 74.507C456.685 74.3295 458.62 74.0588 460.537 73.6949L460.963 76.5041C458.966 76.9124 456.974 77.2052 454.985 77.3828C453.006 77.5603 451 77.649 448.968 77.649H446.824V74.76H448.968Z" fill="white"/>
<path d="M442.269 73.5884H438.874V59.3696H442.269V73.5884ZM445.544 68.0633H440.911V65.2408H445.544V68.0633ZM429.794 76.3576H438.874V74.507H442.269V83.3605H426.4V74.507H429.794V76.3576ZM438.874 80.6845V78.967H429.794V80.6845H438.874ZM437.423 64.2024H423.031V61.5264H437.423V64.2024ZM430.247 64.8681C431.41 64.8681 432.439 65.05 433.336 65.4139C434.241 65.7689 434.947 66.2748 435.453 66.9316C435.959 67.5796 436.212 68.3251 436.212 69.1683C436.212 70.0115 435.959 70.757 435.453 71.405C434.947 72.044 434.241 72.5455 433.336 72.9094C432.439 73.2733 431.41 73.4552 430.247 73.4552C429.067 73.4552 428.019 73.2733 427.105 72.9094C426.2 72.5455 425.494 72.044 424.988 71.405C424.482 70.7659 424.229 70.0204 424.229 69.1683C424.229 68.3074 424.482 67.5574 424.988 66.9183C425.494 66.2704 426.2 65.7689 427.105 65.4139C428.019 65.05 429.067 64.8681 430.247 64.8681ZM430.247 67.3843C429.706 67.3666 429.226 67.4287 428.809 67.5707C428.401 67.7127 428.086 67.9213 427.864 68.1964C427.642 68.4716 427.531 68.7955 427.531 69.1683C427.531 69.5411 427.642 69.865 427.864 70.1402C428.086 70.4153 428.401 70.6239 428.809 70.7659C429.218 70.8991 429.697 70.9656 430.247 70.9656C430.789 70.9656 431.263 70.8991 431.672 70.7659C432.089 70.6239 432.413 70.4153 432.644 70.1402C432.874 69.865 432.99 69.5411 432.99 69.1683C432.99 68.7955 432.87 68.4716 432.63 68.1964C432.399 67.9213 432.08 67.7127 431.672 67.5707C431.263 67.4287 430.789 67.3666 430.247 67.3843ZM431.938 63.0308H428.543V59.2231H431.938V63.0308Z" fill="white"/>
<path d="M419.797 72.3636H416.402V59.3696H419.797V72.3636ZM423.072 67.4243H418.838V64.6285H423.072V67.4243ZM403.541 69.0485C406.354 69.0485 408.516 68.9997 410.025 68.9021C411.533 68.8044 412.993 68.6092 414.405 68.3163L414.777 71.0189C413.304 71.3296 411.769 71.5381 410.171 71.6447C408.582 71.7512 406.372 71.8044 403.541 71.8044H401.504V69.0485H403.541ZM412.328 63.5634H404.899V70.8858H401.504V60.8607H412.328V63.5634ZM407.269 75.7985H416.402V73.5219H419.797V83.3206H403.887V73.5219H407.269V75.7985ZM416.402 80.6179V78.4478H407.269V80.6179H416.402Z" fill="white"/>
<path d="M390.677 64.1761H375.154V61.4868H390.677V64.1761ZM394.991 80.6582H372.891V77.9023H394.991V80.6582ZM384.167 79.3136H380.799V69.5681H384.167V79.3136ZM392.834 63.79C392.834 65.2102 392.816 66.4217 392.781 67.4246C392.745 68.4187 392.661 69.5992 392.528 70.966C392.395 72.324 392.182 73.7973 391.889 75.3861L388.441 75.0266C388.751 73.5444 388.978 72.1465 389.12 70.8329C389.262 69.5104 389.346 68.3433 389.373 67.3314C389.408 66.3107 389.426 65.1303 389.426 63.79V61.4868H392.834V63.79Z" fill="white"/>
<path d="M369.52 83.6933H366.165V59.3696H369.52V83.6933ZM373.114 71.3518H368.774V68.5426H373.114V71.3518ZM353.45 75.2127C355.722 75.2215 357.697 75.1772 359.375 75.0795C361.061 74.9819 362.752 74.7866 364.447 74.4937L364.753 77.2097C363.005 77.5203 361.256 77.7378 359.508 77.862C357.759 77.9863 355.74 78.044 353.45 78.0351H351.413V75.2127H353.45ZM362.583 70.8059H354.795V76.2911H351.413V68.1299H359.202V64.1625H351.387V61.4199H362.583V70.8059Z" fill="white"/>
<path d="M342.584 69.7011H339.202L340.427 61.8994H345.034L342.584 69.7011ZM336.1 69.7011H332.719L333.944 61.8994H338.55L336.1 69.7011Z" fill="white"/>
<path d="M329.202 83.8934H324.915V59.1836H329.202V83.8934ZM332.544 71.4187H328.27V67.9572H332.544V71.4187ZM312.627 74.534C314.766 74.5518 316.692 74.5074 318.405 74.4009C320.118 74.2944 321.827 74.0991 323.531 73.8151L323.97 77.3565C322.231 77.6405 320.487 77.8269 318.738 77.9156C316.998 78.0044 314.961 78.0399 312.627 78.0222H310.457V74.534H312.627ZM322.04 64.8418H314.731V76.318H310.457V61.4069H322.04V64.8418Z" fill="white"/>
<path d="M308.02 83.8135H303.786V59.1836H308.02V83.8135ZM292.456 76.8239H288.223V61.5001H292.456V76.8239ZM290.513 74.321C292.394 74.321 294.325 74.2367 296.304 74.0681C298.292 73.8994 300.245 73.642 302.162 73.2959L302.681 76.7973C300.693 77.2056 298.683 77.4941 296.65 77.6627C294.618 77.8313 292.572 77.9156 290.513 77.9156H288.223V74.321H290.513Z" fill="white"/>
<path d="M284.308 73.7082H280.021V59.1832H284.308V73.7082ZM287.383 68.4227H282.657V64.908H287.383V68.4227ZM272.1 75.9448H280.021V74.5469H284.308V83.5868H267.839V74.5469H272.1V75.9448ZM280.021 80.2584V79.18H272.1V80.2584H280.021ZM279.116 64.442H264.551V61.1269H279.116V64.442ZM271.86 64.8281C273.049 64.8281 274.11 65.0145 275.042 65.3872C275.983 65.76 276.71 66.2792 277.225 66.9449C277.749 67.6106 278.011 68.365 278.011 69.2082C278.011 70.0603 277.749 70.8191 277.225 71.4848C276.71 72.1505 275.983 72.6697 275.042 73.0425C274.11 73.4064 273.049 73.5883 271.86 73.5883C270.662 73.5883 269.588 73.4064 268.638 73.0425C267.697 72.6697 266.961 72.1549 266.428 71.4981C265.904 70.8413 265.642 70.078 265.642 69.2082C265.642 68.3473 265.904 67.5884 266.428 66.9316C266.961 66.2748 267.697 65.76 268.638 65.3872C269.588 65.0145 270.662 64.8281 271.86 64.8281ZM271.86 67.9434C271.452 67.9257 271.092 67.9656 270.781 68.0633C270.471 68.152 270.231 68.2985 270.063 68.5026C269.903 68.6979 269.823 68.9331 269.823 69.2082C269.823 69.51 269.903 69.7585 270.063 69.9538C270.231 70.149 270.466 70.291 270.768 70.3798C271.07 70.4686 271.434 70.5129 271.86 70.5129C272.286 70.5129 272.654 70.4686 272.965 70.3798C273.276 70.291 273.515 70.149 273.684 69.9538C273.861 69.7585 273.95 69.51 273.95 69.2082C273.95 68.9331 273.861 68.6979 273.684 68.5026C273.515 68.2985 273.276 68.152 272.965 68.0633C272.654 67.9656 272.286 67.9257 271.86 67.9434ZM274.003 63.0174H269.716V59.0767H274.003V63.0174Z" fill="white"/>
<path d="M262.126 68.303H244.832V64.8814H262.126V68.303ZM249.093 66.4657H244.832V59.5161H249.093V66.4657ZM264.656 73.3488H242.156V69.9139H264.656V73.3488ZM253.313 74.5071C255.097 74.5071 256.637 74.689 257.933 75.0529C259.237 75.408 260.232 75.9316 260.915 76.6239C261.598 77.3162 261.94 78.1461 261.94 79.1135C261.94 80.0899 261.598 80.9242 260.915 81.6165C260.232 82.3177 259.242 82.8502 257.946 83.2141C256.659 83.578 255.115 83.76 253.313 83.76C251.511 83.76 249.958 83.578 248.653 83.2141C247.357 82.8502 246.359 82.3177 245.658 81.6165C244.957 80.9242 244.606 80.0899 244.606 79.1135C244.606 78.1461 244.957 77.3162 245.658 76.6239C246.359 75.9316 247.362 75.408 248.667 75.0529C249.98 74.689 251.529 74.5071 253.313 74.5071ZM253.313 77.7822C252.257 77.7822 251.414 77.8221 250.783 77.902C250.153 77.9819 249.687 78.1195 249.385 78.3147C249.093 78.5011 248.946 78.7674 248.946 79.1135C248.946 79.4508 249.097 79.7215 249.399 79.9257C249.709 80.1298 250.18 80.2807 250.81 80.3783C251.449 80.476 252.283 80.5248 253.313 80.5248C254.325 80.5248 255.146 80.476 255.776 80.3783C256.415 80.2807 256.885 80.1298 257.187 79.9257C257.498 79.7215 257.653 79.4508 257.653 79.1135C257.653 78.7674 257.498 78.5011 257.187 78.3147C256.885 78.1195 256.424 77.9819 255.803 77.902C255.181 77.8221 254.351 77.7822 253.313 77.7822Z" fill="white"/>
<path d="M239.307 83.7603H235.02V59.1836H239.307V83.7603ZM242.462 71.7648H238.188V68.2767H242.462V71.7648ZM232.597 61.6466C232.597 64.3182 232.25 66.7545 231.558 68.9557C230.866 71.1568 229.703 73.1716 228.07 75C226.437 76.8284 224.258 78.4171 221.533 79.7662L219.137 76.531C221.285 75.4305 223.038 74.2189 224.396 72.8965C225.754 71.574 226.761 70.0651 227.418 68.3699C228.083 66.6658 228.416 64.6909 228.416 62.4454V61.6466H232.597ZM230.56 65.1081H220.654V61.6466H230.56V65.1081Z" fill="white"/>
<path d="M212.44 86.8886H209.059L210.283 79.0869H214.89L212.44 86.8886Z" fill="white"/>
<path d="M191.56 75.6124H187.273V61.3404H191.56V75.6124ZM189.084 74.5207C190.815 74.5385 192.293 74.503 193.517 74.4142C194.751 74.3255 196.003 74.1391 197.272 73.855L197.844 77.4231C196.504 77.7248 195.164 77.9245 193.824 78.0222C192.483 78.1198 190.904 78.1597 189.084 78.142H187.273V74.5207H189.084ZM207.989 83.8135H203.982V59.1836H207.989V83.8135ZM199.562 70.0873H194.223V66.6924H199.562V70.0873ZM202.73 82.8416H198.696V59.5697H202.73V82.8416Z" fill="white"/>
<path d="M184.064 69.7011H180.683L181.908 61.8994H186.514L184.064 69.7011ZM177.581 69.7011H174.199L175.424 61.8994H180.031L177.581 69.7011Z" fill="white"/>
<path d="M152.858 60.1019C154.083 60.1019 155.188 60.3415 156.173 60.8208C157.167 61.2912 157.944 61.948 158.503 62.7912C159.062 63.6255 159.342 64.5752 159.342 65.6403C159.342 66.6876 159.062 67.6329 158.503 68.476C157.944 69.3192 157.167 69.976 156.173 70.4464C155.188 70.9169 154.083 71.1521 152.858 71.1521C151.633 71.1521 150.524 70.9169 149.53 70.4464C148.536 69.976 147.754 69.3192 147.186 68.476C146.627 67.6329 146.348 66.6876 146.348 65.6403C146.348 64.5752 146.627 63.6255 147.186 62.7912C147.754 61.948 148.536 61.2912 149.53 60.8208C150.524 60.3415 151.633 60.1019 152.858 60.1019ZM152.858 62.8844C152.246 62.8844 151.695 62.9953 151.207 63.2172C150.719 63.4302 150.337 63.7453 150.062 64.1625C149.787 64.5796 149.649 65.0722 149.649 65.6403C149.649 66.1994 149.787 66.692 150.062 67.1181C150.337 67.5352 150.719 67.8547 151.207 68.0766C151.695 68.2985 152.246 68.4139 152.858 68.4228C153.479 68.4139 154.03 68.2985 154.509 68.0766C154.997 67.8547 155.379 67.5352 155.654 67.1181C155.929 66.692 156.066 66.1994 156.066 65.6403C156.066 65.0722 155.929 64.5796 155.654 64.1625C155.379 63.7453 154.997 63.4302 154.509 63.2172C154.03 62.9953 153.479 62.8844 152.858 62.8844ZM166.251 71.5381H162.856V59.3696H166.251V71.5381ZM166.251 79.1268H153.377V82.0824H150.062V76.6505H162.87V75.1594H150.009V72.5367H166.251V79.1268ZM166.917 83.3605H150.062V80.6845H166.917V83.3605Z" fill="white"/>
<path d="M144.509 83.6268H141.248V59.3696H144.509V83.6268ZM142.326 71.405H138.225V68.6491H142.326V71.405ZM139.064 82.5084H135.869V59.7424H139.064V82.5084ZM133.819 77.5425H124.18V61.8992H133.819V77.5425ZM127.362 74.8665H130.65V64.5752H127.362V74.8665Z" fill="white"/>
<path d="M113.603 64.1761H98.0797V61.4868H113.603V64.1761ZM117.917 80.6582H95.8164V77.9023H117.917V80.6582ZM107.093 79.3136H103.725V69.5681H107.093V79.3136ZM115.76 63.79C115.76 65.2102 115.742 66.4217 115.707 67.4246C115.671 68.4187 115.587 69.5992 115.454 70.966C115.321 72.324 115.108 73.7973 114.815 75.3861L111.367 75.0266C111.677 73.5444 111.904 72.1465 112.046 70.8329C112.188 69.5104 112.272 68.3433 112.298 67.3314C112.334 66.3107 112.352 65.1303 112.352 63.79V61.4868H115.76V63.79Z" fill="white"/>
<path d="M93.6476 83.6933H90.2527V59.3696H93.6476V83.6933ZM76.8061 75.2127C79.0783 75.2215 81.1285 75.1683 82.9569 75.0529C84.7853 74.9286 86.6403 74.7156 88.522 74.4139L88.8282 77.1564C86.9643 77.4848 85.1048 77.7112 83.2498 77.8354C81.4037 77.9508 79.2558 78.0085 76.8061 78.0085H74.636V75.2127H76.8061ZM86.1255 70.7527H78.1374V76.2777H74.636V68.09H82.664V64.1625H74.6094V61.4199H86.1255V70.7527Z" fill="white"/>
<path d="M68.6446 64.3622H53.1477V61.6196H68.6446V64.3622ZM72.9715 80.4316H50.8711V77.6757H72.9715V80.4316ZM70.2422 64.522C70.2422 66.0397 70.2244 67.3089 70.1889 68.3296C70.1623 69.3414 70.0869 70.5086 69.9626 71.8311C69.8472 73.1535 69.652 74.6003 69.3768 76.1713L65.9286 75.8917C66.2215 74.4361 66.4345 73.0603 66.5677 71.7645C66.7008 70.4687 66.7807 69.3015 66.8073 68.2631C66.834 67.2157 66.8473 65.9687 66.8473 64.522V61.6196H70.2422V64.522Z" fill="white"/>
<path d="M398.89 47.4936H396.374V23.5693H398.89V47.4936ZM402.738 34.9124H398.318V32.8222H402.738V34.9124ZM383.247 39.4656C385.501 39.4656 387.472 39.4079 389.158 39.2925C390.844 39.1683 392.544 38.9508 394.257 38.6402L394.563 40.797C392.824 41.1076 391.102 41.3162 389.398 41.4227C387.702 41.5203 385.652 41.5692 383.247 41.5692H381.316V39.4656H383.247ZM392.473 27.9362H383.833V40.4508H381.316V25.8593H392.473V27.9362Z" fill="white"/>
<path d="M377.63 47.4271H375.127V23.5693H377.63V47.4271ZM361.786 40.6905H359.297V25.8992H361.786V40.6905ZM361.294 39.1994C363.211 39.1994 365.124 39.115 367.032 38.9464C368.949 38.7689 370.866 38.4804 372.783 38.081L373.116 40.2112C371.11 40.6195 369.14 40.9168 367.205 41.1032C365.279 41.2807 363.309 41.3695 361.294 41.3695H359.297V39.1994H361.294Z" fill="white"/>
<path d="M355.139 36.3902H352.623V23.5693H355.139V36.3902ZM342.025 40.1979H352.636V37.5352H355.139V47.1342H339.522V37.5352H342.025V40.1979ZM352.636 45.0839V42.1949H342.025V45.0839H352.636ZM342.198 24.6877C343.405 24.6699 344.488 24.8962 345.447 25.3667C346.414 25.8282 347.173 26.485 347.723 27.337C348.274 28.1802 348.549 29.1432 348.549 30.2261C348.549 31.2823 348.274 32.232 347.723 33.0752C347.173 33.9095 346.414 34.5618 345.447 35.0322C344.488 35.5026 343.405 35.7379 342.198 35.7379C340.991 35.7379 339.904 35.5026 338.936 35.0322C337.978 34.5618 337.223 33.9095 336.673 33.0752C336.123 32.232 335.848 31.2823 335.848 30.2261C335.848 29.1432 336.123 28.1802 336.673 27.337C337.223 26.485 337.978 25.8282 338.936 25.3667C339.904 24.8962 340.991 24.6699 342.198 24.6877ZM342.198 26.8045C341.453 26.7868 340.783 26.9243 340.188 27.2172C339.602 27.5101 339.145 27.9184 338.817 28.4421C338.488 28.9569 338.324 29.5515 338.324 30.2261C338.324 30.8917 338.488 31.4864 338.817 32.0101C339.145 32.5249 339.602 32.9287 340.188 33.2216C340.783 33.5145 341.453 33.6609 342.198 33.6609C342.944 33.6609 343.609 33.5145 344.195 33.2216C344.781 32.9287 345.238 32.5249 345.566 32.0101C345.895 31.4864 346.059 30.8917 346.059 30.2261C346.059 29.5515 345.89 28.9569 345.553 28.4421C345.225 27.9184 344.768 27.5101 344.182 27.2172C343.605 26.9243 342.944 26.7868 342.198 26.8045Z" fill="white"/>
<path d="M334.69 37.695H312.855V35.6447H334.69V37.695ZM325.237 42.3281H322.734V36.9228H325.237V42.3281ZM331.867 33.1684H315.665V24.7144H331.867V33.1684ZM318.141 31.1714H329.378V26.6847H318.141V31.1714ZM332.267 46.9612H315.571V44.871H332.267V46.9612ZM318.101 45.5766H315.571V40.0515H318.101V45.5766Z" fill="white"/>
<path d="M310.167 35.9242H307.677V23.5693H310.167V35.9242ZM310.193 42.9271H297.053V46.0558H294.577V41.0632H307.69V38.9597H294.523V37.0026H310.193V42.9271ZM310.992 47.2008H294.577V45.2037H310.992V47.2008ZM298.744 26.8977C298.744 28.2912 298.464 29.6003 297.905 30.8252C297.355 32.0411 296.556 33.1018 295.509 34.0071C294.47 34.9124 293.25 35.587 291.847 36.0307L290.676 34.0337C291.901 33.6521 292.966 33.0973 293.871 32.3695C294.776 31.6329 295.469 30.7941 295.948 29.8533C296.436 28.9125 296.68 27.9273 296.68 26.8977V25.7128H298.744V26.8977ZM299.236 26.8977C299.236 27.874 299.476 28.806 299.955 29.6935C300.443 30.5811 301.14 31.3622 302.045 32.0367C302.951 32.7024 304.016 33.2127 305.241 33.5678L304.003 35.5248C302.627 35.0988 301.424 34.4642 300.395 33.621C299.374 32.7778 298.588 31.7793 298.038 30.6255C297.488 29.4628 297.213 28.2202 297.213 26.8977V25.7128H299.236V26.8977ZM304.508 26.911H291.328V24.8474H304.508V26.911Z" fill="white"/>
<path d="M281.698 32.5695H265.229V30.5724H281.698V32.5695ZM284.174 37.6153H262.34V35.5916H284.174V37.6153ZM267.745 31.5843H265.229V24.4482H267.745V31.5843ZM281.831 46.8681H265.069V44.7912H281.831V46.8681ZM267.599 45.3903H265.069V39.8919H267.599V45.3903Z" fill="white"/>
<path d="M261.675 36.7364H239.895V34.6196H261.675V36.7364ZM259.186 32.3696H242.664V30.3327H259.186V32.3696ZM258.933 26.3652H245.193V31.5309H242.664V24.2617H258.933V26.3652ZM259.279 47.121H242.61V45.0574H259.279V47.121ZM259.066 41.0633H245.113V46.229H242.61V39.013H259.066V41.0633Z" fill="white"/>
<path d="M218.614 24.3948C219.804 24.3948 220.873 24.6211 221.823 25.0738C222.782 25.5264 223.527 26.161 224.06 26.9776C224.592 27.7853 224.858 28.7039 224.858 29.7335C224.858 30.763 224.592 31.6817 224.06 32.4894C223.527 33.297 222.782 33.9272 221.823 34.3799C220.873 34.8325 219.804 35.0589 218.614 35.0589C217.416 35.0589 216.338 34.8325 215.379 34.3799C214.43 33.9272 213.684 33.297 213.143 32.4894C212.61 31.6817 212.344 30.763 212.344 29.7335C212.344 28.7039 212.61 27.7853 213.143 26.9776C213.684 26.161 214.43 25.5264 215.379 25.0738C216.338 24.6211 217.416 24.3948 218.614 24.3948ZM218.614 26.4983C217.895 26.4983 217.248 26.6314 216.671 26.8977C216.094 27.164 215.641 27.5456 215.313 28.0427C214.984 28.5308 214.82 29.0944 214.82 29.7335C214.82 30.3725 214.984 30.9406 215.313 31.4376C215.641 31.9346 216.094 32.3207 216.671 32.5959C217.248 32.871 217.895 33.0086 218.614 33.0086C219.342 33.0086 219.995 32.871 220.571 32.5959C221.148 32.3207 221.601 31.9346 221.929 31.4376C222.258 30.9406 222.422 30.3725 222.422 29.7335C222.422 29.0944 222.258 28.5308 221.929 28.0427C221.601 27.5456 221.148 27.164 220.571 26.8977C219.995 26.6314 219.342 26.4983 218.614 26.4983ZM231.635 35.7379H229.119V23.5693H231.635V35.7379ZM231.635 42.8206H218.495V46.2022H216.018V40.9567H229.132V38.8266H215.965V36.8296H231.635V42.8206ZM232.434 47.1342H216.018V45.1239H232.434V47.1342Z" fill="white"/>
<path d="M209.909 47.4271H207.472V23.5693H209.909V47.4271ZM208.351 34.9923H203.891V32.9287H208.351V34.9923ZM204.543 46.2555H202.147V24.022H204.543V46.2555ZM199.444 41.1564H190.191V26.2587H199.444V41.1564ZM192.561 39.1461H197.074V28.269H192.561V39.1461Z" fill="white"/>
<path d="M179.922 47.4138H177.406V23.5693H179.922V47.4138ZM183.623 35.2053H179.27V33.1018H183.623V35.2053ZM173.678 26.0989C173.678 28.4864 173.305 30.7187 172.56 32.7956C171.823 34.8636 170.643 36.7719 169.019 38.5204C167.403 40.26 165.322 41.76 162.775 43.0203L161.363 41.0499C163.556 39.9493 165.38 38.6801 166.835 37.2423C168.291 35.7955 169.382 34.1846 170.11 32.4095C170.838 30.6255 171.202 28.6684 171.202 26.5382V26.0989H173.678ZM172.48 28.2024H162.535V26.0989H172.48V28.2024Z" fill="white"/>
<path d="M159.339 47.4271H156.943V23.5693H159.339V47.4271ZM152.843 34.087H148.382V32.05H152.843V34.087ZM154.493 46.2422H152.11V24.1019H154.493V46.2422ZM145.573 30.2394C145.573 32.0145 145.356 33.7142 144.921 35.3384C144.495 36.9627 143.874 38.4227 143.057 39.7186C142.241 41.0144 141.246 42.0262 140.075 42.7541L138.504 40.8635C139.604 40.2067 140.541 39.3192 141.313 38.2008C142.085 37.0825 142.662 35.8399 143.044 34.4731C143.425 33.0973 143.616 31.6861 143.616 30.2394V27.337H145.573V30.2394ZM146.053 30.2394C146.053 31.6329 146.239 32.982 146.612 34.2867C146.985 35.5825 147.548 36.7586 148.303 37.8148C149.057 38.8621 149.976 39.7008 151.059 40.331L149.541 42.1949C148.378 41.4848 147.393 40.5218 146.585 39.3059C145.786 38.081 145.183 36.692 144.775 35.1387C144.375 33.5855 144.175 31.9524 144.175 30.2394V27.337H146.053V30.2394ZM150.167 28.3222H139.249V26.2587H150.167V28.3222Z" fill="white"/>
<path d="M504.422 106.792L466.931 128.437L466.931 85.1469L504.422 106.792Z" fill="#124137"/>
</svg>
